<svg width="424" height="206" viewBox="0 0 424 206" fill="none" xmlns="http://www.w3.org/2000/svg">
<g opacity="0.3" filter="url(#filter0_f_86_1659)">
<path d="M85.0696 111.66L78.7211 106.16L79.9458 105.736L86.2943 111.237L85.0696 111.66ZM82.9113 109.13L81.968 108.313L86.0617 106.896L87.0049 107.713L82.9113 109.13ZM80.2086 106.789L79.2654 105.971L83.8694 104.378L84.8126 105.195L80.2086 106.789ZM91.3356 109.491L86.5742 105.366L87.7422 104.962L92.5036 109.087L91.3356 109.491ZM86.0891 104.258C85.8396 104.345 85.5955 104.367 85.3566 104.325C85.1177 104.283 84.9046 104.181 84.7172 104.018C84.5418 103.866 84.4678 103.72 84.495 103.578C84.5298 103.434 84.6682 103.32 84.9101 103.237C85.1596 103.15 85.4037 103.128 85.6426 103.17C85.8815 103.212 86.0946 103.314 86.2821 103.477C86.4574 103.629 86.5277 103.777 86.4929 103.921C86.4656 104.062 86.331 104.175 86.0891 104.258ZM93.8453 108.623L89.0839 104.497L90.2632 104.089L91.7597 105.386L91.2835 105.111C91.1369 104.883 91.0682 104.654 91.0773 104.423C91.094 104.19 91.1764 103.982 91.3246 103.799C91.4804 103.613 91.6981 103.471 91.9779 103.375C92.1064 103.33 92.2364 103.296 92.3679 103.273C92.507 103.246 92.6227 103.232 92.7149 103.229L93.4245 104.215C93.3036 104.221 93.1773 104.235 93.0458 104.259C92.9158 104.274 92.7978 104.3 92.692 104.337C92.4879 104.408 92.3246 104.505 92.2021 104.628C92.0811 104.743 92.0062 104.875 91.9775 105.024C91.9502 105.166 91.9706 105.316 92.0386 105.476C92.1006 105.631 92.2192 105.784 92.3945 105.936L95.0247 108.214L93.8453 108.623ZM100.04 106.588C99.5415 106.761 99.0222 106.856 98.4824 106.875C97.9427 106.893 97.4045 106.83 96.8678 106.686L97.1174 105.939C97.5559 106.044 97.9557 106.093 98.3171 106.085C98.6799 106.069 99.0314 106.003 99.3716 105.885C99.5077 105.838 99.6204 105.784 99.7096 105.724C99.8003 105.656 99.86 105.584 99.8888 105.508C99.9251 105.429 99.9296 105.351 99.9024 105.272C99.8692 105.189 99.8072 105.107 99.7165 105.029C99.5593 104.893 99.3605 104.807 99.1202 104.773C99.0022 104.763 98.8359 104.765 98.6212 104.781C98.4081 104.789 98.1458 104.814 97.8343 104.855C97.3051 104.929 96.8433 104.964 96.4487 104.961C96.0541 104.959 95.7086 104.92 95.4123 104.847C95.184 104.787 94.9769 104.708 94.791 104.611C94.599 104.509 94.4214 104.387 94.2581 104.246C93.9921 104.015 93.8508 103.778 93.8342 103.535C93.8177 103.291 93.9107 103.065 94.1133 102.855C94.3175 102.638 94.6199 102.46 95.0206 102.321C95.3003 102.225 95.6064 102.155 95.9391 102.113C96.2792 102.069 96.624 102.056 96.9732 102.074C97.3224 102.093 97.655 102.143 97.971 102.224L97.8914 102.966C97.6329 102.916 97.3744 102.885 97.1159 102.872C96.8589 102.851 96.6192 102.849 96.397 102.868C96.1747 102.886 95.9918 102.92 95.8482 102.97C95.6894 103.025 95.5579 103.085 95.4535 103.15C95.3492 103.216 95.2758 103.285 95.2335 103.358C95.1987 103.429 95.1949 103.504 95.2221 103.582C95.2493 103.661 95.3083 103.739 95.3989 103.818C95.4851 103.883 95.5834 103.941 95.6937 103.991C95.8056 104.033 95.9235 104.062 96.0475 104.077C96.179 104.09 96.3551 104.092 96.5759 104.081C96.7966 104.071 97.0597 104.042 97.3651 103.995C97.8217 103.932 98.2193 103.901 98.558 103.901C98.8981 103.893 99.2005 103.917 99.4651 103.972C99.7311 104.019 99.97 104.098 100.182 104.208C100.393 104.318 100.593 104.454 100.78 104.617C101.052 104.852 101.199 105.098 101.22 105.355C101.243 105.604 101.152 105.837 100.948 106.054C100.744 106.272 100.441 106.45 100.04 106.588ZM103.675 105.22L97.6984 100.042L98.8664 99.6374L104.843 104.816L103.675 105.22ZM98.5846 102.308L97.6776 101.523L101.465 100.211L102.372 100.997L98.5846 102.308ZM109.856 103.081L103.507 97.58L104.607 97.1992L114.658 100.022L114.558 100.155C114.257 99.9589 113.924 99.7257 113.56 99.4559C113.203 99.1835 112.821 98.8797 112.413 98.5444C112.005 98.2091 111.58 97.8503 111.139 97.4678L109.053 95.6605L110.277 95.2366L116.626 100.737L115.503 101.126L105.723 98.4407L105.721 98.2875C106.233 98.6674 106.653 98.9804 106.979 99.2266C107.3 99.4676 107.555 99.6614 107.745 99.8081C107.936 99.9548 108.083 100.073 108.185 100.162C108.29 100.243 108.375 100.312 108.442 100.37L111.081 102.657L109.856 103.081ZM121.626 99.0062L118.525 96.3188C118.259 96.0883 117.923 95.9442 117.518 95.8865C117.114 95.8209 116.731 95.8509 116.368 95.9766C116.035 96.0917 115.787 96.2435 115.624 96.432C115.468 96.6179 115.393 96.8457 115.397 97.1154L114.03 96.8519C114.077 96.4618 114.229 96.1306 114.486 95.8583C114.75 95.5834 115.121 95.3635 115.597 95.1986C116.051 95.0416 116.504 94.9579 116.958 94.9476C117.412 94.9372 117.847 95.0028 118.264 95.1443C118.675 95.2805 119.047 95.4927 119.38 95.7808L122.681 98.6411L121.626 99.0062ZM119.937 99.701C119.551 99.8345 119.147 99.9012 118.723 99.9011C118.3 99.901 117.892 99.8407 117.499 99.7201C117.107 99.5917 116.766 99.4018 116.476 99.1503C116.222 98.9303 116.055 98.7169 115.975 98.51C115.895 98.3031 115.901 98.1067 115.993 97.9208C116.093 97.7323 116.276 97.5516 116.542 97.3789C116.816 97.2035 117.172 97.0399 117.611 96.8881L119.266 96.315L119.908 96.9947L118.207 97.5835C117.98 97.662 117.794 97.7484 117.649 97.8426C117.505 97.929 117.406 98.0259 117.35 98.1332C117.295 98.2327 117.286 98.3348 117.322 98.4396C117.352 98.5391 117.431 98.6439 117.558 98.7539C117.691 98.8691 117.851 98.9569 118.036 99.0171C118.216 99.0722 118.405 99.0984 118.603 99.0958C118.801 99.0933 118.995 99.0593 119.184 98.9938C119.456 98.8996 119.677 98.7792 119.846 98.6326C120.017 98.4782 120.131 98.3106 120.187 98.1299C120.25 97.9466 120.253 97.766 120.196 97.5879L121.076 98.0202C121.128 98.2585 121.116 98.4863 121.039 98.7036C120.962 98.9209 120.833 99.116 120.651 99.2888C120.47 99.4616 120.232 99.599 119.937 99.701ZM123.681 98.295L118.92 94.1696L120.099 93.7614L121.115 94.6414L121.008 94.8103C120.911 94.6532 120.855 94.4895 120.838 94.3193C120.829 94.1465 120.865 93.9802 120.945 93.8205C121.026 93.6529 121.144 93.5024 121.296 93.3688C121.457 93.2327 121.654 93.1241 121.888 93.043C122.229 92.9252 122.572 92.8611 122.92 92.8507C123.268 92.8403 123.616 92.8849 123.963 92.9845C124.311 93.0841 124.659 93.2387 125.006 93.4482L124.789 93.4796L124.714 93.3186C124.658 93.1693 124.641 93.0174 124.664 92.8629C124.688 92.7006 124.747 92.5448 124.839 92.3955C124.931 92.2463 125.056 92.1115 125.213 91.991C125.37 91.8706 125.551 91.7751 125.755 91.7044C126.201 91.55 126.64 91.486 127.073 91.5123C127.513 91.5359 127.953 91.6512 128.393 91.8582C128.84 92.0626 129.285 92.356 129.726 92.7384L132.583 95.2136L131.403 95.6219L128.601 93.1938C128.196 92.8428 127.801 92.6201 127.417 92.5257C127.035 92.4235 126.639 92.4431 126.231 92.5844C126.02 92.6577 125.849 92.7532 125.721 92.871C125.594 92.981 125.514 93.104 125.48 93.2402C125.447 93.3763 125.462 93.5177 125.526 93.6644C125.583 93.8058 125.693 93.9473 125.857 94.0887L128.704 96.5561L127.525 96.9643L124.705 94.5205C124.33 94.1957 123.94 93.9822 123.537 93.88C123.141 93.7751 122.754 93.7882 122.376 93.919C122.164 93.9923 121.998 94.0865 121.877 94.2017C121.75 94.3116 121.67 94.4347 121.636 94.5709C121.597 94.7018 121.609 94.8406 121.672 94.9872C121.73 95.1286 121.837 95.2675 121.994 95.4037L124.86 97.8868L123.681 98.295ZM136.562 93.9462C135.949 94.1582 135.302 94.2575 134.621 94.2443C133.94 94.2232 133.283 94.1026 132.648 93.8825C132.02 93.6597 131.471 93.3441 130.999 92.9355C130.624 92.6107 130.358 92.2885 130.201 91.969C130.044 91.6495 129.986 91.347 130.027 91.0616C130.069 90.7683 130.215 90.5052 130.465 90.2722C130.716 90.0314 131.06 89.835 131.499 89.6833C131.884 89.5498 132.304 89.4779 132.758 89.4675C133.205 89.4519 133.653 89.4913 134.1 89.5857C134.555 89.6774 134.989 89.8242 135.402 90.0259C135.816 90.2198 136.185 90.4621 136.51 90.7528L136.898 91.1025L132.033 92.7864L131.029 92.2324L135.145 90.8075L135.129 90.9999L134.912 90.8114C134.689 90.6463 134.428 90.5206 134.127 90.4341C133.826 90.3476 133.521 90.303 133.211 90.3003C132.901 90.2976 132.617 90.3408 132.36 90.4298C131.952 90.5711 131.672 90.7451 131.519 90.952C131.36 91.1536 131.33 91.384 131.428 91.6433C131.52 91.8973 131.742 92.1762 132.092 92.4801C132.425 92.7682 132.802 92.9896 133.224 93.1442C133.64 93.2935 134.073 93.3709 134.523 93.3762C134.974 93.3815 135.407 93.3122 135.823 93.1683C136.118 93.0663 136.35 92.938 136.521 92.7835C136.7 92.6265 136.834 92.4078 136.923 92.1277L138.175 92.4972C138.138 92.6857 138.042 92.8729 137.886 93.0588C137.738 93.2421 137.55 93.4136 137.322 93.5732C137.095 93.7251 136.842 93.8494 136.562 93.9462Z" fill="black"/>
</g>
<g opacity="0.18">
<g filter="url(#filter1_i_86_1659)">
<rect width="148.62" height="26.0508" rx="6" transform="matrix(-0.944986 0.32711 0.755779 0.654827 278.855 161.421)" fill="url(#paint0_linear_86_1659)"/>
</g>
<rect x="-0.0946037" y="0.490969" width="147.62" height="25.0508" rx="5.5" transform="matrix(-0.944986 0.32711 0.755779 0.654827 278.3 161.621)" stroke="#B557FA" stroke-opacity="0.37" style="mix-blend-mode:overlay"/>
</g>
<g filter="url(#filter2_f_86_1659)">
<ellipse cx="225.27" cy="121.043" rx="225.27" ry="121.043" transform="matrix(-0.890627 0.454734 -0.893373 -0.449317 407.172 44.3855)" fill="#B557FA"/>
</g>
<g style="mix-blend-mode:screen" filter="url(#filter3_i_86_1659)">
<circle cx="206.159" cy="92.0407" r="52.3154" stroke="#9200FF"/>
</g>
<g style="mix-blend-mode:screen" opacity="0.8" filter="url(#filter4_i_86_1659)">
<circle cx="206.162" cy="92.0399" r="61.8419" stroke="#9200FF"/>
</g>
<g style="mix-blend-mode:screen" opacity="0.6" filter="url(#filter5_i_86_1659)">
<circle cx="206.159" cy="92.0402" r="75.1977" stroke="#9200FF"/>
</g>
<g style="mix-blend-mode:screen" opacity="0.4" filter="url(#filter6_i_86_1659)">
<circle cx="206.162" cy="92.0394" r="93.2281" stroke="#9200FF"/>
</g>
<g style="mix-blend-mode:screen" opacity="0.2" filter="url(#filter7_i_86_1659)">
<circle cx="206.162" cy="92.0394" r="117.423" stroke="#9200FF"/>
</g>
<g style="mix-blend-mode:color-dodge" opacity="0.05" filter="url(#filter8_i_86_1659)">
<circle cx="206.162" cy="92.0392" r="161.677" stroke="#9200FF"/>
</g>
<g opacity="0.5" filter="url(#filter9_f_86_1659)">
<path d="M139.386 149.728L130.509 145.103L131.813 144.652L137.316 147.563C137.51 147.658 137.72 147.776 137.946 147.917C138.173 148.059 138.39 148.196 138.597 148.33C138.806 148.455 138.97 148.556 139.089 148.632L138.751 148.738C138.544 148.421 138.383 148.176 138.269 148.004C138.161 147.828 138.081 147.695 138.028 147.603C137.969 147.506 137.922 147.423 137.885 147.355L136.448 144.378L137.548 143.997L141.798 146.001C142.018 146.101 142.228 146.204 142.426 146.312C142.625 146.411 142.82 146.516 143.011 146.626C143.195 146.731 143.392 146.842 143.603 146.96L143.371 147.117C143.246 146.962 143.145 146.843 143.07 146.76C142.996 146.668 142.936 146.593 142.891 146.536C142.845 146.478 142.803 146.423 142.764 146.371C142.718 146.313 142.665 146.24 142.605 146.151C142.552 146.059 142.477 145.935 142.381 145.777L139.944 141.837L141.259 141.382L145.079 147.758L144.228 148.052L138.158 145.336L138.296 145.333L140.214 149.442L139.386 149.728ZM151.482 145.541L148.381 142.854C148.115 142.623 147.779 142.479 147.374 142.421C146.97 142.356 146.587 142.386 146.224 142.511C145.891 142.627 145.643 142.778 145.48 142.967C145.324 143.153 145.249 143.381 145.253 143.65L143.886 143.387C143.933 142.997 144.085 142.665 144.342 142.393C144.606 142.118 144.977 141.898 145.453 141.733C145.907 141.576 146.36 141.493 146.814 141.482C147.267 141.472 147.703 141.538 148.12 141.679C148.531 141.815 148.903 142.028 149.236 142.316L152.537 145.176L151.482 145.541ZM149.793 146.236C149.407 146.369 149.003 146.436 148.579 146.436C148.156 146.436 147.748 146.375 147.355 146.255C146.963 146.127 146.622 145.937 146.332 145.685C146.078 145.465 145.911 145.252 145.831 145.045C145.751 144.838 145.757 144.642 145.849 144.456C145.949 144.267 146.132 144.086 146.398 143.914C146.672 143.738 147.028 143.575 147.467 143.423L149.122 142.85L149.764 143.53L148.063 144.118C147.836 144.197 147.65 144.283 147.505 144.377C147.361 144.464 147.261 144.561 147.206 144.668C147.151 144.768 147.142 144.87 147.178 144.974C147.208 145.074 147.287 145.179 147.414 145.289C147.547 145.404 147.707 145.492 147.892 145.552C148.072 145.607 148.261 145.633 148.459 145.631C148.657 145.628 148.851 145.594 149.04 145.529C149.312 145.434 149.533 145.314 149.702 145.167C149.873 145.013 149.987 144.845 150.043 144.665C150.106 144.481 150.109 144.301 150.052 144.123L150.932 144.555C150.984 144.793 150.972 145.021 150.895 145.238C150.818 145.456 150.689 145.651 150.507 145.824C150.326 145.996 150.088 146.134 149.793 146.236ZM153.582 144.814L146.871 138.999L148.039 138.595L154.75 144.41L153.582 144.814ZM155.975 143.986L149.263 138.171L150.431 137.767L157.143 143.582L155.975 143.986ZM161.103 142.321C160.49 142.533 159.843 142.632 159.161 142.619C158.481 142.598 157.823 142.477 157.188 142.257C156.561 142.034 156.012 141.719 155.54 141.31C155.165 140.985 154.899 140.663 154.742 140.344C154.585 140.024 154.527 139.722 154.568 139.436C154.61 139.143 154.756 138.88 155.005 138.647C155.256 138.406 155.601 138.21 156.04 138.058C156.425 137.924 156.845 137.853 157.298 137.842C157.746 137.827 158.193 137.866 158.641 137.96C159.096 138.052 159.53 138.199 159.942 138.401C160.357 138.594 160.726 138.837 161.051 139.127L161.439 139.477L156.574 141.161L155.57 140.607L159.686 139.182L159.67 139.375L159.452 139.186C159.23 139.021 158.969 138.895 158.668 138.809C158.367 138.722 158.062 138.678 157.752 138.675C157.442 138.672 157.158 138.715 156.901 138.804C156.493 138.946 156.213 139.12 156.06 139.327C155.901 139.528 155.871 139.759 155.969 140.018C156.061 140.272 156.283 140.551 156.633 140.855C156.966 141.143 157.343 141.364 157.765 141.519C158.18 141.668 158.614 141.746 159.064 141.751C159.515 141.756 159.948 141.687 160.364 141.543C160.658 141.441 160.891 141.313 161.062 141.158C161.241 141.001 161.374 140.783 161.464 140.502L162.715 140.872C162.679 141.06 162.583 141.248 162.427 141.433C162.279 141.617 162.091 141.788 161.862 141.948C161.636 142.1 161.382 142.224 161.103 142.321ZM165.162 140.806L159.185 135.628L160.353 135.223L166.33 140.402L165.162 140.806ZM160.071 137.894L159.164 137.108L162.952 135.797L163.859 136.583L160.071 137.894ZM170.515 138.953L167.239 132.389L168.487 131.957L177.886 136.401L176.582 136.853L170.94 134.165C170.875 134.136 170.727 134.063 170.496 133.945C170.272 133.824 170.019 133.692 169.736 133.548C169.453 133.404 169.196 133.273 168.965 133.155C168.728 133.032 168.573 132.953 168.502 132.919L168.754 132.821C168.812 132.926 168.885 133.058 168.974 133.218C169.071 133.375 169.169 133.543 169.269 133.721C169.376 133.896 169.474 134.064 169.563 134.223C169.647 134.378 169.717 134.508 169.774 134.612L171.762 138.521L170.515 138.953ZM170.297 137.115L169.808 136.14L173.414 134.892L174.879 135.529L170.297 137.115ZM180.887 135.473C180.343 135.661 179.749 135.738 179.107 135.704C178.466 135.662 177.836 135.524 177.218 135.291C176.593 135.053 176.042 134.726 175.565 134.313C175.087 133.899 174.785 133.49 174.658 133.087C174.532 132.676 174.576 132.305 174.787 131.975C174.993 131.64 175.364 131.38 175.901 131.194C176.196 131.092 176.519 131.028 176.869 131.002C177.222 130.968 177.574 130.97 177.926 131.01C178.272 131.044 178.585 131.108 178.863 131.202C179.142 131.289 179.361 131.4 179.518 131.536L179.196 131.67L176.013 128.912L177.181 128.507L183.892 134.322L182.724 134.727L181.59 133.744L181.817 133.666C181.962 133.792 182.047 133.938 182.071 134.106C182.089 134.268 182.057 134.437 181.973 134.613C181.898 134.785 181.764 134.949 181.572 135.103C181.387 135.255 181.159 135.378 180.887 135.473ZM180.238 134.718C180.594 134.595 180.835 134.424 180.962 134.204C181.089 133.984 181.104 133.74 181.008 133.473C180.912 133.198 180.705 132.922 180.384 132.644C180.064 132.367 179.7 132.148 179.293 131.988C178.888 131.82 178.477 131.721 178.06 131.689C177.643 131.658 177.256 131.703 176.901 131.826C176.546 131.949 176.304 132.121 176.177 132.341C176.05 132.561 176.034 132.808 176.13 133.083C176.226 133.35 176.435 133.623 176.755 133.9C177.076 134.178 177.439 134.401 177.844 134.568C178.25 134.728 178.662 134.824 179.08 134.855C179.497 134.887 179.883 134.841 180.238 134.718ZM187.62 133.142C187.076 133.33 186.483 133.407 185.84 133.373C185.199 133.331 184.569 133.193 183.951 132.96C183.327 132.722 182.776 132.396 182.298 131.982C181.82 131.568 181.518 131.159 181.391 130.756C181.266 130.345 181.309 129.974 181.521 129.644C181.727 129.309 182.098 129.049 182.634 128.863C182.929 128.761 183.252 128.697 183.603 128.671C183.955 128.637 184.307 128.64 184.66 128.679C185.006 128.713 185.318 128.777 185.596 128.872C185.876 128.958 186.094 129.069 186.252 129.206L185.929 129.339L182.746 126.581L183.914 126.177L190.625 131.992L189.457 132.396L188.324 131.414L188.551 131.335C188.696 131.461 188.78 131.607 188.804 131.775C188.823 131.937 188.79 132.106 188.707 132.282C188.631 132.455 188.497 132.618 188.305 132.773C188.121 132.924 187.893 133.047 187.62 133.142ZM186.972 132.387C187.327 132.264 187.568 132.093 187.695 131.873C187.823 131.653 187.838 131.41 187.741 131.142C187.646 130.867 187.438 130.591 187.118 130.313C186.797 130.036 186.434 129.817 186.027 129.657C185.622 129.49 185.211 129.39 184.793 129.358C184.376 129.327 183.99 129.373 183.634 129.496C183.279 129.619 183.038 129.79 182.911 130.01C182.784 130.23 182.768 130.477 182.863 130.752C182.96 131.02 183.168 131.292 183.489 131.57C183.809 131.847 184.172 132.07 184.577 132.238C184.984 132.397 185.396 132.493 185.813 132.525C186.23 132.556 186.617 132.51 186.972 132.387ZM191.78 131.592L187.018 127.467L188.198 127.058L189.694 128.355L189.218 128.08C189.071 127.852 189.003 127.623 189.012 127.392C189.028 127.159 189.111 126.951 189.259 126.768C189.415 126.582 189.633 126.441 189.912 126.344C190.041 126.299 190.171 126.265 190.302 126.242C190.441 126.216 190.557 126.201 190.649 126.199L191.359 127.185C191.238 127.19 191.112 127.204 190.98 127.228C190.85 127.244 190.732 127.27 190.626 127.306C190.422 127.377 190.259 127.474 190.136 127.597C190.016 127.712 189.941 127.844 189.912 127.994C189.885 128.135 189.905 128.286 189.973 128.445C190.035 128.6 190.154 128.753 190.329 128.905L192.959 131.184L191.78 131.592ZM198.514 129.371C197.902 129.583 197.255 129.682 196.573 129.669C195.892 129.648 195.235 129.527 194.6 129.307C193.972 129.084 193.423 128.769 192.951 128.36C192.576 128.035 192.31 127.713 192.153 127.394C191.996 127.074 191.938 126.772 191.979 126.486C192.021 126.193 192.167 125.93 192.417 125.697C192.668 125.456 193.012 125.26 193.451 125.108C193.837 124.974 194.256 124.903 194.71 124.892C195.157 124.877 195.605 124.916 196.052 125.01C196.507 125.102 196.941 125.249 197.354 125.451C197.768 125.644 198.138 125.887 198.463 126.177L198.85 126.527L193.985 128.211L192.981 127.657L197.097 126.232L197.081 126.425L196.864 126.236C196.642 126.071 196.38 125.945 196.079 125.859C195.778 125.772 195.473 125.728 195.163 125.725C194.853 125.722 194.57 125.765 194.313 125.854C193.904 125.996 193.624 126.17 193.471 126.377C193.312 126.578 193.282 126.809 193.38 127.068C193.472 127.322 193.694 127.601 194.044 127.905C194.377 128.193 194.754 128.414 195.176 128.569C195.592 128.718 196.025 128.795 196.475 128.801C196.926 128.806 197.359 128.737 197.775 128.593C198.07 128.491 198.303 128.363 198.473 128.208C198.652 128.051 198.786 127.832 198.875 127.552L200.127 127.922C200.09 128.11 199.994 128.298 199.839 128.483C199.69 128.667 199.502 128.838 199.274 128.998C199.047 129.15 198.794 129.274 198.514 129.371ZM203.911 127.503C203.412 127.675 202.893 127.771 202.353 127.789C201.813 127.807 201.275 127.744 200.738 127.6L200.988 126.854C201.426 126.959 201.826 127.007 202.188 126.999C202.55 126.984 202.902 126.917 203.242 126.799C203.378 126.752 203.491 126.699 203.58 126.638C203.671 126.57 203.731 126.498 203.759 126.422C203.796 126.344 203.8 126.265 203.773 126.187C203.74 126.103 203.678 126.022 203.587 125.943C203.43 125.807 203.231 125.722 202.991 125.688C202.873 125.677 202.706 125.68 202.492 125.695C202.279 125.703 202.016 125.728 201.705 125.77C201.176 125.843 200.714 125.878 200.319 125.876C199.925 125.873 199.579 125.835 199.283 125.762C199.055 125.701 198.847 125.623 198.662 125.526C198.47 125.424 198.292 125.302 198.129 125.16C197.863 124.93 197.721 124.693 197.705 124.449C197.688 124.206 197.781 123.979 197.984 123.77C198.188 123.552 198.49 123.374 198.891 123.236C199.171 123.139 199.477 123.07 199.81 123.028C200.15 122.983 200.494 122.97 200.844 122.989C201.193 123.007 201.526 123.057 201.842 123.138L201.762 123.881C201.503 123.831 201.245 123.799 200.986 123.786C200.729 123.765 200.49 123.764 200.268 123.782C200.045 123.8 199.862 123.834 199.719 123.884C199.56 123.939 199.428 123.999 199.324 124.065C199.22 124.13 199.146 124.199 199.104 124.273C199.069 124.343 199.065 124.418 199.093 124.497C199.12 124.575 199.179 124.654 199.269 124.732C199.356 124.798 199.454 124.856 199.564 124.905C199.676 124.947 199.794 124.976 199.918 124.992C200.05 125.005 200.226 125.006 200.446 124.996C200.667 124.985 200.93 124.957 201.236 124.91C201.692 124.847 202.09 124.816 202.428 124.816C202.769 124.808 203.071 124.831 203.336 124.887C203.602 124.934 203.841 125.012 204.052 125.122C204.264 125.232 204.463 125.369 204.651 125.531C204.923 125.767 205.069 126.013 205.091 126.27C205.113 126.518 205.022 126.751 204.818 126.969C204.614 127.186 204.312 127.364 203.911 127.503ZM208.884 125.781C208.385 125.954 207.865 126.049 207.326 126.068C206.786 126.086 206.248 126.023 205.711 125.879L205.961 125.133C206.399 125.237 206.799 125.286 207.16 125.278C207.523 125.263 207.875 125.196 208.215 125.078C208.351 125.031 208.464 124.977 208.553 124.917C208.644 124.849 208.703 124.777 208.732 124.701C208.768 124.623 208.773 124.544 208.746 124.465C208.712 124.382 208.65 124.3 208.56 124.222C208.403 124.086 208.204 124.001 207.963 123.966C207.845 123.956 207.679 123.958 207.464 123.974C207.251 123.982 206.989 124.007 206.678 124.049C206.148 124.122 205.686 124.157 205.292 124.154C204.897 124.152 204.552 124.114 204.256 124.04C204.027 123.98 203.82 123.901 203.634 123.804C203.442 123.702 203.265 123.58 203.101 123.439C202.835 123.208 202.694 122.971 202.677 122.728C202.661 122.484 202.754 122.258 202.957 122.048C203.161 121.831 203.463 121.653 203.864 121.514C204.144 121.418 204.45 121.348 204.782 121.306C205.122 121.262 205.467 121.249 205.816 121.267C206.166 121.286 206.498 121.336 206.814 121.417L206.735 122.159C206.476 122.109 206.218 122.078 205.959 122.065C205.702 122.044 205.462 122.042 205.24 122.061C205.018 122.079 204.835 122.113 204.691 122.163C204.533 122.218 204.401 122.278 204.297 122.343C204.192 122.409 204.119 122.478 204.077 122.551C204.042 122.622 204.038 122.697 204.065 122.775C204.093 122.854 204.151 122.932 204.242 123.011C204.328 123.077 204.427 123.134 204.537 123.184C204.649 123.226 204.767 123.255 204.891 123.27C205.022 123.284 205.198 123.285 205.419 123.275C205.64 123.264 205.903 123.235 206.208 123.188C206.665 123.126 207.063 123.094 207.401 123.094C207.741 123.087 208.044 123.11 208.308 123.165C208.574 123.212 208.813 123.291 209.025 123.401C209.236 123.511 209.436 123.647 209.623 123.81C209.896 124.045 210.042 124.292 210.063 124.548C210.086 124.797 209.995 125.03 209.791 125.247C209.587 125.465 209.284 125.643 208.884 125.781Z" fill="black"/>
</g>
<g filter="url(#filter10_f_86_1659)">
<ellipse cx="167.785" cy="40.9272" rx="167.785" ry="40.9272" transform="matrix(-0.594161 0.804346 -0.999916 0.0129163 572.449 69.9011)" fill="#B557FA"/>
</g>
<g filter="url(#filter11_f_86_1659)">
<ellipse cx="215.318" cy="115.695" rx="215.318" ry="115.695" transform="matrix(-0.998318 -0.0579754 -0.543595 -0.839347 426.469 296.184)" fill="black"/>
</g>
<defs>
<filter id="filter0_f_86_1659" x="74.6771" y="83.5064" width="67.8928" height="31.6326" filterUnits="userSpaceOnUse" color-interpolation-filters="sRGB">
<feFlood flood-opacity="0" result="BackgroundImageFix"/>
<feBlend mode="normal" in="SourceGraphic" in2="BackgroundImageFix" result="shape"/>
<feGaussianBlur stdDeviation="1.7" result="effect1_foregroundBlur_86_1659"/>
</filter>
<filter id="filter1_i_86_1659" x="141.356" y="162.919" width="159.244" height="63.6763" filterUnits="userSpaceOnUse" color-interpolation-filters="sRGB">
<feFlood flood-opacity="0" result="BackgroundImageFix"/>
<feBlend mode="normal" in="SourceGraphic" in2="BackgroundImageFix" result="shape"/>
<feColorMatrix in="SourceAlpha" type="matrix" values="0 0 0 0 0 0 0 0 0 0 0 0 0 0 0 0 0 0 127 0" result="hardAlpha"/>
<feOffset dx="5" dy="1"/>
<feGaussianBlur stdDeviation="3.95"/>
<feComposite in2="hardAlpha" operator="arithmetic" k2="-1" k3="1"/>
<feColorMatrix type="matrix" values="0 0 0 0 0 0 0 0 0 0 0 0 0 0 0 0 0 0 0.54 0"/>
<feBlend mode="normal" in2="shape" result="effect1_innerShadow_86_1659"/>
</filter>
<filter id="filter2_f_86_1659" x="-304.759" y="-198.766" width="806.324" height="582.407" filterUnits="userSpaceOnUse" color-interpolation-filters="sRGB">
<feFlood flood-opacity="0" result="BackgroundImageFix"/>
<feBlend mode="normal" in="SourceGraphic" in2="BackgroundImageFix" result="shape"/>
<feGaussianBlur stdDeviation="87.6" result="effect1_foregroundBlur_86_1659"/>
</filter>
<filter id="filter3_i_86_1659" x="153.344" y="39.2253" width="105.631" height="112.231" filterUnits="userSpaceOnUse" color-interpolation-filters="sRGB">
<feFlood flood-opacity="0" result="BackgroundImageFix"/>
<feBlend mode="normal" in="SourceGraphic" in2="BackgroundImageFix" result="shape"/>
<feColorMatrix in="SourceAlpha" type="matrix" values="0 0 0 0 0 0 0 0 0 0 0 0 0 0 0 0 0 0 127 0" result="hardAlpha"/>
<feOffset dy="10"/>
<feGaussianBlur stdDeviation="3.3"/>
<feComposite in2="hardAlpha" operator="arithmetic" k2="-1" k3="1"/>
<feColorMatrix type="matrix" values="0 0 0 0 0.290752 0 0 0 0 0.0144618 0 0 0 0 0.495833 0 0 0 0.81 0"/>
<feBlend mode="normal" in2="shape" result="effect1_innerShadow_86_1659"/>
</filter>
<filter id="filter4_i_86_1659" x="143.82" y="29.698" width="124.684" height="131.284" filterUnits="userSpaceOnUse" color-interpolation-filters="sRGB">
<feFlood flood-opacity="0" result="BackgroundImageFix"/>
<feBlend mode="normal" in="SourceGraphic" in2="BackgroundImageFix" result="shape"/>
<feColorMatrix in="SourceAlpha" type="matrix" values="0 0 0 0 0 0 0 0 0 0 0 0 0 0 0 0 0 0 127 0" result="hardAlpha"/>
<feOffset dy="10"/>
<feGaussianBlur stdDeviation="3.3"/>
<feComposite in2="hardAlpha" operator="arithmetic" k2="-1" k3="1"/>
<feColorMatrix type="matrix" values="0 0 0 0 0.290752 0 0 0 0 0.0144618 0 0 0 0 0.495833 0 0 0 0.81 0"/>
<feBlend mode="normal" in2="shape" result="effect1_innerShadow_86_1659"/>
</filter>
<filter id="filter5_i_86_1659" x="130.461" y="16.3425" width="151.395" height="157.995" filterUnits="userSpaceOnUse" color-interpolation-filters="sRGB">
<feFlood flood-opacity="0" result="BackgroundImageFix"/>
<feBlend mode="normal" in="SourceGraphic" in2="BackgroundImageFix" result="shape"/>
<feColorMatrix in="SourceAlpha" type="matrix" values="0 0 0 0 0 0 0 0 0 0 0 0 0 0 0 0 0 0 127 0" result="hardAlpha"/>
<feOffset dy="10"/>
<feGaussianBlur stdDeviation="3.3"/>
<feComposite in2="hardAlpha" operator="arithmetic" k2="-1" k3="1"/>
<feColorMatrix type="matrix" values="0 0 0 0 0.290752 0 0 0 0 0.0144618 0 0 0 0 0.495833 0 0 0 0.81 0"/>
<feBlend mode="normal" in2="shape" result="effect1_innerShadow_86_1659"/>
</filter>
<filter id="filter6_i_86_1659" x="112.434" y="-1.68872" width="187.456" height="194.056" filterUnits="userSpaceOnUse" color-interpolation-filters="sRGB">
<feFlood flood-opacity="0" result="BackgroundImageFix"/>
<feBlend mode="normal" in="SourceGraphic" in2="BackgroundImageFix" result="shape"/>
<feColorMatrix in="SourceAlpha" type="matrix" values="0 0 0 0 0 0 0 0 0 0 0 0 0 0 0 0 0 0 127 0" result="hardAlpha"/>
<feOffset dy="10"/>
<feGaussianBlur stdDeviation="3.3"/>
<feComposite in2="hardAlpha" operator="arithmetic" k2="-1" k3="1"/>
<feColorMatrix type="matrix" values="0 0 0 0 0.290752 0 0 0 0 0.0144618 0 0 0 0 0.495833 0 0 0 0.81 0"/>
<feBlend mode="normal" in2="shape" result="effect1_innerShadow_86_1659"/>
</filter>
<filter id="filter7_i_86_1659" x="88.2383" y="-25.884" width="235.847" height="242.447" filterUnits="userSpaceOnUse" color-interpolation-filters="sRGB">
<feFlood flood-opacity="0" result="BackgroundImageFix"/>
<feBlend mode="normal" in="SourceGraphic" in2="BackgroundImageFix" result="shape"/>
<feColorMatrix in="SourceAlpha" type="matrix" values="0 0 0 0 0 0 0 0 0 0 0 0 0 0 0 0 0 0 127 0" result="hardAlpha"/>
<feOffset dy="10"/>
<feGaussianBlur stdDeviation="3.3"/>
<feComposite in2="hardAlpha" operator="arithmetic" k2="-1" k3="1"/>
<feColorMatrix type="matrix" values="0 0 0 0 0.290752 0 0 0 0 0.0144618 0 0 0 0 0.495833 0 0 0 0.81 0"/>
<feBlend mode="normal" in2="shape" result="effect1_innerShadow_86_1659"/>
</filter>
<filter id="filter8_i_86_1659" x="43.9844" y="-70.1379" width="324.354" height="330.954" filterUnits="userSpaceOnUse" color-interpolation-filters="sRGB">
<feFlood flood-opacity="0" result="BackgroundImageFix"/>
<feBlend mode="normal" in="SourceGraphic" in2="BackgroundImageFix" result="shape"/>
<feColorMatrix in="SourceAlpha" type="matrix" values="0 0 0 0 0 0 0 0 0 0 0 0 0 0 0 0 0 0 127 0" result="hardAlpha"/>
<feOffset dy="10"/>
<feGaussianBlur stdDeviation="3.3"/>
<feComposite in2="hardAlpha" operator="arithmetic" k2="-1" k3="1"/>
<feColorMatrix type="matrix" values="0 0 0 0 0.290752 0 0 0 0 0.0144618 0 0 0 0 0.495833 0 0 0 0.81 0"/>
<feBlend mode="normal" in2="shape" result="effect1_innerShadow_86_1659"/>
</filter>
<filter id="filter9_f_86_1659" x="123.046" y="112.042" width="95.0923" height="45.74" filterUnits="userSpaceOnUse" color-interpolation-filters="sRGB">
<feFlood flood-opacity="0" result="BackgroundImageFix"/>
<feBlend mode="normal" in="SourceGraphic" in2="BackgroundImageFix" result="shape"/>
<feGaussianBlur stdDeviation="3.55" result="effect1_foregroundBlur_86_1659"/>
</filter>
<filter id="filter10_f_86_1659" x="224.042" y="-29.5713" width="415.585" height="469.916" filterUnits="userSpaceOnUse" color-interpolation-filters="sRGB">
<feFlood flood-opacity="0" result="BackgroundImageFix"/>
<feBlend mode="normal" in="SourceGraphic" in2="BackgroundImageFix" result="shape"/>
<feGaussianBlur stdDeviation="50" result="effect1_foregroundBlur_86_1659"/>
</filter>
<filter id="filter11_f_86_1659" x="-195.405" y="-31.326" width="688.052" height="435.837" filterUnits="userSpaceOnUse" color-interpolation-filters="sRGB">
<feFlood flood-opacity="0" result="BackgroundImageFix"/>
<feBlend mode="normal" in="SourceGraphic" in2="BackgroundImageFix" result="shape"/>
<feGaussianBlur stdDeviation="60" result="effect1_foregroundBlur_86_1659"/>
</filter>
<linearGradient id="paint0_linear_86_1659" x1="0" y1="13.0254" x2="148.62" y2="13.0254" gradientUnits="userSpaceOnUse">
<stop stop-color="#6C12AF" stop-opacity="0"/>
<stop offset="1" stop-color="#B557FA"/>
</linearGradient>
</defs>
</svg>
