<svg width="424" height="206" viewBox="0 0 424 206" fill="none" xmlns="http://www.w3.org/2000/svg">
<g filter="url(#filter0_i_86_1659)">
<rect width="148.62" height="25.4085" rx="10" transform="matrix(-0.944986 0.32711 0.755779 0.654827 198.27 54.0945)" fill="url(#paint0_linear_86_1659)"/>
</g>
<path opacity="0.87" d="M82.9134 106.961L76.5648 101.461L77.7895 101.037L84.1381 106.537L82.9134 106.961ZM80.755 104.431L79.8118 103.614L83.9055 102.197L84.8487 103.014L80.755 104.431ZM78.0523 102.089L77.1091 101.272L81.7131 99.6786L82.6563 100.496L78.0523 102.089ZM89.1793 104.792L84.4179 100.667L85.5859 100.263L90.3473 104.388L89.1793 104.792ZM83.9329 99.559C83.6834 99.6454 83.4392 99.6676 83.2004 99.6257C82.9615 99.5837 82.7483 99.4815 82.5609 99.3191C82.3856 99.1672 82.3115 99.0205 82.3388 98.8792C82.3736 98.7351 82.5119 98.6213 82.7539 98.5375C83.0033 98.4512 83.2475 98.429 83.4864 98.4709C83.7252 98.5129 83.9384 98.615 84.1258 98.7774C84.3011 98.9294 84.3714 99.0773 84.3366 99.2213C84.3094 99.3627 84.1748 99.4753 83.9329 99.559ZM91.6891 103.923L86.9277 99.7981L88.107 99.3898L89.6034 100.686L89.1273 100.411C88.9807 100.183 88.9119 99.9543 88.9211 99.7239C88.9377 99.4909 89.0202 99.2827 89.1684 99.0994C89.3242 98.9135 89.5419 98.7722 89.8216 98.6754C89.9501 98.6309 90.0802 98.5969 90.2117 98.5733C90.3508 98.5472 90.4664 98.5328 90.5587 98.5302L91.2683 99.5163C91.1473 99.5215 91.0211 99.5358 90.8895 99.5594C90.7595 99.5751 90.6416 99.6012 90.5357 99.6379C90.3316 99.7085 90.1683 99.8054 90.0458 99.9284C89.9249 100.044 89.85 100.176 89.8212 100.325C89.794 100.466 89.8144 100.617 89.8824 100.777C89.9443 100.931 90.063 101.085 90.2383 101.236L92.8684 103.515L91.6891 103.923ZM97.8842 101.889C97.3853 102.062 96.8659 102.157 96.3262 102.175C95.7864 102.194 95.2482 102.131 94.7116 101.986L94.9612 101.24C95.3996 101.345 95.7995 101.394 96.1608 101.386C96.5237 101.37 96.8752 101.303 97.2154 101.186C97.3515 101.139 97.4641 101.085 97.5533 101.025C97.644 100.957 97.7038 100.885 97.7325 100.809C97.7688 100.73 97.7734 100.652 97.7462 100.573C97.7129 100.489 97.651 100.408 97.5603 100.33C97.4031 100.193 97.2043 100.108 96.9639 100.074C96.846 100.064 96.6797 100.066 96.465 100.082C96.2518 100.09 95.9895 100.114 95.6781 100.156C95.1489 100.229 94.687 100.265 94.2924 100.262C93.8978 100.259 93.5524 100.221 93.2561 100.148C93.0278 100.088 92.8207 100.009 92.6347 99.912C92.4428 99.8099 92.2651 99.6881 92.1019 99.5466C91.8359 99.3161 91.6946 99.0791 91.678 98.8356C91.6614 98.592 91.7544 98.3655 91.9571 98.1561C92.1612 97.9388 92.4636 97.7608 92.8643 97.6221C93.144 97.5253 93.4502 97.456 93.7828 97.4141C94.123 97.3697 94.4677 97.3567 94.8169 97.3751C95.1662 97.3935 95.4988 97.4433 95.8147 97.5246L95.7352 98.2669C95.4767 98.2171 95.2182 98.1857 94.9596 98.1725C94.7026 98.1515 94.463 98.1501 94.2407 98.1684C94.0185 98.1867 93.8355 98.2207 93.6919 98.2704C93.5332 98.3254 93.4016 98.3856 93.2973 98.451C93.1929 98.5164 93.1196 98.5858 93.0773 98.6591C93.0425 98.7298 93.0387 98.8045 93.0659 98.883C93.0931 98.9616 93.152 99.0402 93.2427 99.1187C93.3289 99.1842 93.4271 99.2419 93.5375 99.2916C93.6493 99.3336 93.7673 99.3624 93.8912 99.3781C94.0227 99.3913 94.1989 99.3926 94.4196 99.3822C94.6403 99.3718 94.9034 99.343 95.2088 99.2959C95.6654 99.2332 96.063 99.2019 96.4017 99.2019C96.7419 99.1942 97.0442 99.2178 97.3088 99.2729C97.5749 99.3201 97.8137 99.3987 98.0254 99.5087C98.237 99.6187 98.4365 99.7549 98.624 99.9173C98.896 100.153 99.0426 100.399 99.0638 100.656C99.0864 100.905 98.9956 101.138 98.7915 101.355C98.5873 101.572 98.2849 101.75 97.8842 101.889ZM101.519 100.521L95.5421 95.3425L96.7101 94.9382L102.687 100.117L101.519 100.521ZM96.4283 97.6091L95.5214 96.8233L99.3089 95.5123L100.216 96.2981L96.4283 97.6091ZM107.7 98.3813L101.351 92.8808L102.451 92.5L112.501 95.3226L112.402 95.4561C112.101 95.2596 111.768 95.0265 111.404 94.7567C111.047 94.4843 110.665 94.1804 110.257 93.8452C109.848 93.5099 109.424 93.151 108.982 92.7686L106.896 90.9613L108.121 90.5374L114.47 96.0379L113.347 96.4265L103.567 93.7415L103.564 93.5883C104.077 93.9681 104.496 94.2812 104.823 94.5274C105.143 94.7684 105.399 94.9622 105.589 95.1089C105.78 95.2556 105.926 95.3734 106.029 95.4625C106.133 95.5437 106.219 95.6131 106.285 95.6707L108.924 97.9574L107.7 98.3813ZM119.47 94.307L116.368 91.6196C116.102 91.3891 115.767 91.245 115.362 91.1873C114.958 91.1217 114.575 91.1517 114.212 91.2773C113.879 91.3925 113.631 91.5443 113.468 91.7328C113.312 91.9187 113.236 92.1465 113.241 92.4162L111.874 92.1527C111.921 91.7626 112.073 91.4313 112.33 91.1591C112.594 90.8842 112.965 90.6643 113.441 90.4994C113.895 90.3424 114.348 90.2587 114.802 90.2484C115.255 90.238 115.691 90.3036 116.108 90.4451C116.519 90.5813 116.891 90.7935 117.224 91.0816L120.525 93.9419L119.47 94.307ZM117.78 95.0018C117.395 95.1353 116.99 95.202 116.567 95.2019C116.144 95.2018 115.736 95.1415 115.343 95.0209C114.951 94.8925 114.61 94.7026 114.32 94.4511C114.066 94.2311 113.899 94.0176 113.819 93.8108C113.739 93.6039 113.745 93.4075 113.837 93.2216C113.937 93.0331 114.12 92.8524 114.386 92.6796C114.66 92.5043 115.016 92.3407 115.454 92.1889L117.11 91.6158L117.752 92.2955L116.051 92.8843C115.824 92.9628 115.638 93.0492 115.493 93.1434C115.349 93.2298 115.249 93.3266 115.193 93.434C115.139 93.5335 115.13 93.6356 115.166 93.7404C115.196 93.8399 115.275 93.9446 115.402 94.0546C115.535 94.1699 115.694 94.2577 115.88 94.3179C116.06 94.373 116.249 94.3992 116.447 94.3966C116.645 94.394 116.839 94.36 117.028 94.2946C117.3 94.2004 117.521 94.08 117.69 93.9334C117.861 93.7789 117.974 93.6114 118.03 93.4307C118.094 93.2474 118.097 93.0667 118.04 92.8887L118.919 93.3209C118.972 93.5592 118.96 93.7871 118.883 94.0044C118.806 94.2217 118.676 94.4168 118.495 94.5896C118.313 94.7623 118.075 94.8998 117.78 95.0018ZM121.525 93.5958L116.763 89.4704L117.943 89.0621L118.958 89.9422L118.852 90.1111C118.755 89.954 118.698 89.7903 118.682 89.6201C118.673 89.4472 118.708 89.281 118.789 89.1212C118.87 88.9537 118.987 88.8031 119.14 88.6696C119.3 88.5335 119.498 88.4249 119.732 88.3437C120.072 88.226 120.416 88.1619 120.764 88.1515C121.112 88.1411 121.459 88.1857 121.807 88.2853C122.155 88.3849 122.503 88.5395 122.85 88.749L122.632 88.7804L122.558 88.6193C122.502 88.4701 122.485 88.3182 122.508 88.1637C122.532 88.0013 122.59 87.8455 122.683 87.6963C122.775 87.5471 122.9 87.4122 123.057 87.2918C123.214 87.1714 123.395 87.0759 123.599 87.0052C124.045 86.8508 124.484 86.7868 124.917 86.813C125.357 86.8367 125.796 86.952 126.236 87.159C126.684 87.3634 127.128 87.6567 127.57 88.0392L130.426 90.5144L129.247 90.9226L126.445 88.4945C126.04 88.1436 125.645 87.9209 125.261 87.8265C124.879 87.7243 124.483 87.7439 124.075 87.8852C123.863 87.9584 123.693 88.054 123.565 88.1718C123.438 88.2817 123.358 88.4048 123.324 88.541C123.291 88.6771 123.306 88.8185 123.369 88.9652C123.427 89.1066 123.537 89.248 123.7 89.3895L126.548 91.8569L125.369 92.2651L122.548 89.8213C122.173 89.4965 121.784 89.283 121.381 89.1808C120.984 89.0759 120.597 89.0889 120.219 89.2198C120.008 89.293 119.841 89.3873 119.72 89.5025C119.593 89.6124 119.513 89.7355 119.48 89.8716C119.441 90.0026 119.453 90.1414 119.516 90.288C119.574 90.4294 119.681 90.5682 119.838 90.7044L122.704 93.1875L121.525 93.5958ZM134.406 89.247C133.793 89.459 133.146 89.5583 132.464 89.5451C131.784 89.524 131.126 89.4034 130.491 89.1833C129.864 88.9605 129.315 88.6449 128.843 88.2362C128.468 87.9114 128.202 87.5893 128.045 87.2698C127.888 86.9503 127.83 86.6478 127.87 86.3624C127.913 86.0691 128.059 85.806 128.308 85.573C128.559 85.3321 128.904 85.1358 129.343 84.984C129.728 84.8506 130.148 84.7787 130.601 84.7683C131.049 84.7527 131.496 84.7921 131.944 84.8864C132.399 84.9782 132.833 85.1249 133.245 85.3267C133.66 85.5205 134.029 85.7628 134.354 86.0536L134.742 86.4033L129.877 88.0872L128.873 87.5332L132.989 86.1083L132.973 86.3007L132.755 86.1121C132.533 85.9471 132.272 85.8214 131.971 85.7349C131.67 85.6484 131.365 85.6038 131.055 85.6011C130.745 85.5984 130.461 85.6416 130.204 85.7305C129.796 85.8719 129.515 86.0459 129.363 86.2528C129.204 86.4544 129.174 86.6848 129.272 86.9441C129.364 87.1981 129.585 87.477 129.936 87.7809C130.269 88.069 130.646 88.2903 131.068 88.4449C131.483 88.5943 131.916 88.6716 132.367 88.677C132.817 88.6823 133.251 88.613 133.666 88.4691C133.961 88.367 134.194 88.2388 134.365 88.0843C134.543 87.9272 134.677 87.7086 134.767 87.4284L136.018 87.798C135.982 87.9865 135.886 88.1737 135.73 88.3596C135.582 88.5429 135.394 88.7143 135.165 88.874C134.939 89.0258 134.685 89.1502 134.406 89.247Z" fill="url(#paint1_linear_86_1659)"/>
<g opacity="0.3" filter="url(#filter1_f_86_1659)">
<path d="M85.0735 111.66L78.725 106.16L79.9497 105.736L86.2982 111.237L85.0735 111.66ZM82.9152 109.13L81.9719 108.313L86.0656 106.896L87.0088 107.713L82.9152 109.13ZM80.2125 106.789L79.2693 105.971L83.8733 104.378L84.8165 105.195L80.2125 106.789ZM91.3395 109.491L86.5781 105.366L87.7461 104.962L92.5075 109.087L91.3395 109.491ZM86.093 104.258C85.8435 104.345 85.5994 104.367 85.3605 104.325C85.1216 104.283 84.9085 104.181 84.7211 104.018C84.5457 103.866 84.4717 103.72 84.4989 103.578C84.5337 103.434 84.6721 103.32 84.914 103.237C85.1635 103.15 85.4077 103.128 85.6465 103.17C85.8854 103.212 86.0985 103.314 86.286 103.477C86.4613 103.629 86.5316 103.777 86.4968 103.921C86.4695 104.062 86.3349 104.175 86.093 104.258ZM93.8492 108.623L89.0878 104.497L90.2672 104.089L91.7636 105.386L91.2874 105.111C91.1408 104.883 91.0721 104.654 91.0812 104.423C91.0979 104.19 91.1803 103.982 91.3285 103.799C91.4843 103.613 91.702 103.471 91.9818 103.375C92.1103 103.33 92.2403 103.296 92.3718 103.273C92.5109 103.246 92.6266 103.232 92.7188 103.229L93.4284 104.215C93.3075 104.221 93.1812 104.235 93.0497 104.259C92.9197 104.274 92.8017 104.3 92.6959 104.337C92.4918 104.408 92.3285 104.505 92.206 104.628C92.085 104.743 92.0101 104.875 91.9814 105.024C91.9541 105.166 91.9745 105.316 92.0425 105.476C92.1045 105.631 92.2231 105.784 92.3984 105.936L95.0286 108.214L93.8492 108.623ZM100.044 106.588C99.5454 106.761 99.0261 106.856 98.4863 106.875C97.9466 106.893 97.4084 106.83 96.8717 106.686L97.1213 105.939C97.5598 106.044 97.9596 106.093 98.321 106.085C98.6838 106.069 99.0353 106.003 99.3755 105.885C99.5116 105.838 99.6243 105.784 99.7135 105.724C99.8042 105.656 99.8639 105.584 99.8927 105.508C99.929 105.429 99.9335 105.351 99.9063 105.272C99.8731 105.189 99.8111 105.107 99.7204 105.029C99.5632 104.893 99.3644 104.807 99.1241 104.773C99.0061 104.763 98.8398 104.765 98.6252 104.781C98.412 104.789 98.1497 104.814 97.8382 104.855C97.309 104.929 96.8472 104.964 96.4526 104.961C96.058 104.959 95.7125 104.92 95.4162 104.847C95.1879 104.787 94.9808 104.708 94.7949 104.611C94.6029 104.509 94.4253 104.387 94.2621 104.246C93.996 104.015 93.8547 103.778 93.8381 103.535C93.8216 103.291 93.9146 103.065 94.1172 102.855C94.3214 102.638 94.6238 102.46 95.0245 102.321C95.3042 102.225 95.6104 102.155 95.943 102.113C96.2832 102.069 96.6279 102.056 96.9771 102.074C97.3263 102.093 97.6589 102.143 97.9749 102.224L97.8953 102.966C97.6368 102.916 97.3783 102.885 97.1198 102.872C96.8628 102.851 96.6231 102.849 96.4009 102.868C96.1786 102.886 95.9957 102.92 95.8521 102.97C95.6933 103.025 95.5618 103.085 95.4574 103.15C95.3531 103.216 95.2798 103.285 95.2374 103.358C95.2026 103.429 95.1988 103.504 95.226 103.582C95.2532 103.661 95.3122 103.739 95.4028 103.818C95.489 103.883 95.5873 103.941 95.6976 103.991C95.8095 104.033 95.9274 104.062 96.0514 104.077C96.1829 104.09 96.359 104.092 96.5798 104.081C96.8005 104.071 97.0636 104.042 97.369 103.995C97.8256 103.932 98.2232 103.901 98.5619 103.901C98.902 103.893 99.2044 103.917 99.469 103.972C99.735 104.019 99.9739 104.098 100.186 104.208C100.397 104.318 100.597 104.454 100.784 104.617C101.056 104.852 101.203 105.098 101.224 105.355C101.247 105.604 101.156 105.837 100.952 106.054C100.747 106.272 100.445 106.45 100.044 106.588ZM103.679 105.22L97.7023 100.042L98.8703 99.6374L104.847 104.816L103.679 105.22ZM98.5885 102.308L97.6815 101.523L101.469 100.211L102.376 100.997L98.5885 102.308ZM109.86 103.081L103.511 97.58L104.611 97.1992L114.662 100.022L114.562 100.155C114.261 99.9589 113.928 99.7257 113.564 99.4559C113.207 99.1835 112.825 98.8797 112.417 98.5444C112.009 98.2091 111.584 97.8503 111.143 97.4678L109.057 95.6605L110.281 95.2366L116.63 100.737L115.507 101.126L105.727 98.4407L105.725 98.2875C106.237 98.6674 106.656 98.9804 106.983 99.2266C107.303 99.4676 107.559 99.6614 107.749 99.8081C107.94 99.9548 108.086 100.073 108.189 100.162C108.294 100.243 108.379 100.312 108.445 100.37L111.085 102.657L109.86 103.081ZM121.63 99.0062L118.529 96.3188C118.263 96.0883 117.927 95.9442 117.522 95.8865C117.118 95.8209 116.735 95.8509 116.372 95.9766C116.039 96.0917 115.791 96.2435 115.628 96.432C115.472 96.6179 115.397 96.8457 115.401 97.1154L114.034 96.8519C114.081 96.4618 114.233 96.1306 114.49 95.8583C114.754 95.5834 115.125 95.3635 115.601 95.1986C116.055 95.0416 116.508 94.9579 116.962 94.9476C117.415 94.9372 117.851 95.0028 118.268 95.1443C118.679 95.2805 119.051 95.4927 119.384 95.7808L122.685 98.6411L121.63 99.0062ZM119.941 99.701C119.555 99.8345 119.151 99.9012 118.727 99.9011C118.304 99.901 117.896 99.8407 117.503 99.7201C117.111 99.5917 116.77 99.4018 116.48 99.1503C116.226 98.9303 116.059 98.7169 115.979 98.51C115.899 98.3031 115.905 98.1067 115.997 97.9208C116.097 97.7323 116.28 97.5516 116.546 97.3789C116.82 97.2035 117.176 97.0399 117.615 96.8881L119.27 96.315L119.912 96.9947L118.211 97.5835C117.984 97.662 117.798 97.7484 117.653 97.8426C117.509 97.929 117.409 98.0259 117.353 98.1332C117.299 98.2327 117.29 98.3348 117.326 98.4396C117.356 98.5391 117.435 98.6439 117.562 98.7539C117.695 98.8691 117.854 98.9569 118.04 99.0171C118.22 99.0722 118.409 99.0984 118.607 99.0958C118.805 99.0933 118.999 99.0593 119.188 98.9938C119.46 98.8996 119.681 98.7792 119.85 98.6326C120.021 98.4782 120.134 98.3106 120.19 98.1299C120.254 97.9466 120.257 97.766 120.2 97.5879L121.079 98.0202C121.132 98.2585 121.12 98.4863 121.043 98.7036C120.966 98.9209 120.837 99.116 120.655 99.2888C120.474 99.4616 120.235 99.599 119.941 99.701ZM123.685 98.295L118.923 94.1696L120.103 93.7614L121.119 94.6414L121.012 94.8103C120.915 94.6532 120.859 94.4895 120.842 94.3193C120.833 94.1465 120.868 93.9802 120.949 93.8205C121.03 93.6529 121.148 93.5024 121.3 93.3688C121.461 93.2327 121.658 93.1241 121.892 93.043C122.232 92.9252 122.576 92.8611 122.924 92.8507C123.272 92.8403 123.62 92.8849 123.967 92.9845C124.315 93.0841 124.663 93.2387 125.01 93.4482L124.793 93.4796L124.718 93.3186C124.662 93.1693 124.645 93.0174 124.668 92.8629C124.692 92.7006 124.751 92.5448 124.843 92.3955C124.935 92.2463 125.06 92.1115 125.217 91.991C125.374 91.8706 125.555 91.7751 125.759 91.7044C126.205 91.55 126.644 91.486 127.077 91.5123C127.517 91.5359 127.957 91.6512 128.397 91.8582C128.844 92.0626 129.288 92.356 129.73 92.7384L132.587 95.2136L131.407 95.6219L128.605 93.1938C128.2 92.8428 127.805 92.6201 127.421 92.5257C127.039 92.4235 126.643 92.4431 126.235 92.5844C126.023 92.6577 125.853 92.7532 125.725 92.871C125.598 92.981 125.518 93.104 125.484 93.2402C125.451 93.3763 125.466 93.5177 125.53 93.6644C125.587 93.8058 125.697 93.9473 125.861 94.0887L128.708 96.5561L127.529 96.9643L124.708 94.5205C124.334 94.1957 123.944 93.9822 123.541 93.88C123.145 93.7751 122.758 93.7882 122.38 93.919C122.168 93.9923 122.002 94.0865 121.881 94.2017C121.754 94.3116 121.673 94.4347 121.64 94.5709C121.601 94.7018 121.613 94.8406 121.676 94.9872C121.734 95.1286 121.841 95.2675 121.998 95.4037L124.864 97.8868L123.685 98.295ZM136.566 93.9462C135.953 94.1582 135.306 94.2575 134.624 94.2443C133.944 94.2232 133.286 94.1026 132.652 93.8825C132.024 93.6597 131.475 93.3441 131.003 92.9355C130.628 92.6107 130.362 92.2885 130.205 91.969C130.048 91.6495 129.99 91.347 130.031 91.0616C130.073 90.7683 130.219 90.5052 130.468 90.2722C130.72 90.0314 131.064 89.835 131.503 89.6833C131.888 89.5498 132.308 89.4779 132.761 89.4675C133.209 89.4519 133.656 89.4913 134.104 89.5857C134.559 89.6774 134.993 89.8242 135.406 90.0259C135.82 90.2198 136.189 90.4621 136.514 90.7528L136.902 91.1025L132.037 92.7864L131.033 92.2324L135.149 90.8075L135.133 90.9999L134.916 90.8114C134.693 90.6463 134.432 90.5206 134.131 90.4341C133.83 90.3476 133.525 90.303 133.215 90.3003C132.905 90.2976 132.621 90.3408 132.364 90.4298C131.956 90.5711 131.676 90.7451 131.523 90.952C131.364 91.1536 131.334 91.384 131.432 91.6433C131.524 91.8973 131.746 92.1762 132.096 92.4801C132.429 92.7682 132.806 92.9896 133.228 93.1442C133.643 93.2935 134.077 93.3709 134.527 93.3762C134.978 93.3815 135.411 93.3122 135.827 93.1683C136.121 93.0663 136.354 92.938 136.525 92.7835C136.704 92.6265 136.837 92.4078 136.927 92.1277L138.178 92.4972C138.142 92.6857 138.046 92.8729 137.89 93.0588C137.742 93.2421 137.554 93.4136 137.326 93.5732C137.099 93.7251 136.845 93.8494 136.566 93.9462Z" fill="black"/>
</g>
<g filter="url(#filter2_di_86_1659)">
<rect width="148.62" height="26.0508" rx="10" transform="matrix(-0.944986 0.32711 0.755779 0.654827 312.461 32.3054)" fill="url(#paint2_linear_86_1659)" shape-rendering="crispEdges"/>
<rect x="-0.0946037" y="0.490969" width="147.62" height="25.0508" rx="9.5" transform="matrix(-0.944986 0.32711 0.755779 0.654827 311.906 32.5058)" stroke="#B557FA" stroke-opacity="0.37" style="mix-blend-mode:overlay" shape-rendering="crispEdges"/>
</g>
<g opacity="0.18">
<g filter="url(#filter3_i_86_1659)">
<rect width="148.62" height="26.0508" rx="10" transform="matrix(-0.944986 0.32711 0.755779 0.654827 378.621 89.1121)" fill="url(#paint3_linear_86_1659)"/>
</g>
<rect x="-0.0946037" y="0.490969" width="147.62" height="25.0508" rx="9.5" transform="matrix(-0.944986 0.32711 0.755779 0.654827 378.066 89.3125)" stroke="#B557FA" stroke-opacity="0.37" style="mix-blend-mode:overlay"/>
</g>
<g opacity="0.18">
<g filter="url(#filter4_i_86_1659)">
<rect width="148.62" height="26.0508" rx="10" transform="matrix(-0.944986 0.32711 0.755779 0.654827 245.207 0.592529)" fill="url(#paint4_linear_86_1659)"/>
</g>
<rect x="-0.0946037" y="0.490969" width="147.62" height="25.0508" rx="9.5" transform="matrix(-0.944986 0.32711 0.755779 0.654827 244.652 0.792944)" stroke="#B557FA" stroke-opacity="0.37" style="mix-blend-mode:overlay"/>
</g>
<g opacity="0.18">
<g filter="url(#filter5_i_86_1659)">
<rect width="148.62" height="26.0508" rx="10" transform="matrix(-0.944986 0.32711 0.755779 0.654827 82.5 59.9988)" fill="url(#paint5_linear_86_1659)"/>
</g>
<rect x="-0.0946037" y="0.490969" width="147.62" height="25.0508" rx="9.5" transform="matrix(-0.944986 0.32711 0.755779 0.654827 81.9449 60.1992)" stroke="#B557FA" stroke-opacity="0.37" style="mix-blend-mode:overlay"/>
</g>
<g opacity="0.18">
<g filter="url(#filter6_i_86_1659)">
<rect width="148.62" height="26.0508" rx="6" transform="matrix(-0.944986 0.32711 0.755779 0.654827 278.852 161.419)" fill="url(#paint6_linear_86_1659)"/>
</g>
<rect x="-0.0946037" y="0.490969" width="147.62" height="25.0508" rx="5.5" transform="matrix(-0.944986 0.32711 0.755779 0.654827 278.296 161.619)" stroke="#B557FA" stroke-opacity="0.37" style="mix-blend-mode:overlay"/>
</g>
<g opacity="0.42" filter="url(#filter7_f_86_1659)">
<path d="M200.076 88.8084C199.426 89.0334 198.748 89.1433 198.044 89.1379C197.347 89.1299 196.615 89.0092 195.849 88.776L195.917 87.8176C196.711 88.0561 197.359 88.1872 197.863 88.2108C198.366 88.2345 198.852 88.1652 199.321 88.003C199.608 87.9036 199.833 87.7818 199.994 87.6379C200.156 87.4939 200.242 87.3433 200.251 87.1862C200.26 87.0291 200.183 86.8798 200.02 86.7384C199.911 86.6441 199.785 86.5629 199.643 86.4948C199.501 86.4266 199.342 86.3755 199.165 86.3415C198.995 86.3048 198.802 86.2838 198.584 86.2785C198.374 86.2706 198.146 86.2797 197.902 86.3058C197.651 86.3267 197.378 86.3659 197.085 86.4235C196.61 86.5071 196.167 86.5542 195.756 86.5646C195.345 86.5749 194.956 86.5447 194.588 86.474C194.221 86.4032 193.885 86.2957 193.581 86.1516C193.272 86.0023 192.987 85.815 192.727 85.5897C192.382 85.2911 192.198 84.9847 192.173 84.6705C192.149 84.3562 192.266 84.063 192.523 83.7907C192.782 83.5106 193.168 83.2815 193.682 83.1036C194.294 82.8916 194.924 82.7909 195.571 82.8016C196.22 82.8043 196.858 82.9171 197.485 83.1398L197.303 84.0275C196.78 83.8493 196.281 83.7471 195.807 83.7208C195.34 83.6918 194.913 83.7441 194.528 83.8776C194.233 83.9796 194.012 84.1 193.865 84.2388C193.719 84.3776 193.648 84.5268 193.652 84.6865C193.658 84.8384 193.749 84.9903 193.924 85.1422C194.051 85.2522 194.199 85.3439 194.369 85.4173C194.532 85.4854 194.716 85.5352 194.922 85.5667C195.129 85.5903 195.372 85.5943 195.65 85.5786C195.922 85.5577 196.23 85.5172 196.573 85.4571C197.061 85.376 197.525 85.329 197.965 85.316C198.399 85.2978 198.805 85.3149 199.183 85.3673C199.561 85.4198 199.9 85.5076 200.201 85.6307C200.51 85.7513 200.773 85.9058 200.99 86.0944C201.395 86.4454 201.629 86.7898 201.691 87.1276C201.753 87.4654 201.65 87.7796 201.382 88.0702C201.108 88.3556 200.673 88.6017 200.076 88.8084ZM206.733 86.5041C206.12 86.7161 205.473 86.8155 204.791 86.8022C204.111 86.7811 203.453 86.6605 202.818 86.4404C202.191 86.2177 201.641 85.902 201.17 85.4934C200.795 85.1686 200.529 84.8464 200.372 84.5269C200.215 84.2074 200.157 83.905 200.197 83.6195C200.24 83.3263 200.386 83.0631 200.635 82.8301C200.886 82.5893 201.231 82.393 201.67 82.2412C202.055 82.1077 202.475 82.0358 202.928 82.0254C203.376 82.0098 203.823 82.0492 204.271 82.1436C204.726 82.2353 205.16 82.3821 205.572 82.5838C205.987 82.7777 206.356 83.02 206.681 83.3107L207.069 83.6604L202.204 85.3444L201.2 84.7903L205.316 83.3654L205.3 83.5579L205.082 83.3693C204.86 83.2043 204.599 83.0785 204.298 82.992C203.997 82.9055 203.691 82.861 203.382 82.8583C203.072 82.8556 202.788 82.8987 202.531 82.9877C202.123 83.129 201.842 83.3031 201.69 83.5099C201.531 83.7115 201.501 83.9419 201.599 84.2012C201.691 84.4552 201.912 84.7342 202.263 85.038C202.596 85.3261 202.973 85.5475 203.395 85.7021C203.81 85.8514 204.243 85.9288 204.694 85.9341C205.144 85.9395 205.578 85.8702 205.993 85.7262C206.288 85.6242 206.521 85.4959 206.692 85.3415C206.87 85.1844 207.004 84.9658 207.094 84.6856L208.345 85.0551C208.309 85.2436 208.213 85.4308 208.057 85.6167C207.909 85.8 207.721 85.9715 207.492 86.1312C207.265 86.283 207.012 86.4073 206.733 86.5041ZM212.674 84.4475C212.122 84.6385 211.518 84.7157 210.862 84.6788C210.213 84.6394 209.573 84.5018 208.941 84.266C208.317 84.0275 207.772 83.7066 207.306 83.3033C206.841 82.8999 206.545 82.4926 206.42 82.0815C206.302 81.6677 206.35 81.2919 206.563 80.9542C206.784 80.6138 207.17 80.3481 207.722 80.1571C208.251 79.9739 208.819 79.8837 209.425 79.8865C210.033 79.8814 210.598 79.9679 211.121 80.1461L211.11 80.9199C210.85 80.8413 210.568 80.7849 210.264 80.7508C209.96 80.7167 209.669 80.7074 209.391 80.7231C209.113 80.7387 208.875 80.7806 208.679 80.8486C208.316 80.9742 208.063 81.1496 207.921 81.3748C207.781 81.5921 207.751 81.8369 207.833 82.1093C207.914 82.3816 208.109 82.6514 208.418 82.9186C208.726 83.1857 209.091 83.3966 209.513 83.5512C209.929 83.7006 210.353 83.7884 210.785 83.8147C211.217 83.841 211.607 83.7939 211.955 83.6736C212.159 83.6029 212.329 83.5113 212.463 83.3987C212.605 83.2835 212.713 83.1474 212.785 82.9903C212.858 82.8332 212.895 82.6591 212.897 82.4679L214.178 82.7942C214.208 83.1137 214.084 83.4279 213.806 83.7368C213.535 84.0431 213.158 84.28 212.674 84.4475ZM218.436 82.4528C217.854 82.6543 217.227 82.7432 216.554 82.7195C215.883 82.6879 215.23 82.5582 214.597 82.3302C213.957 82.097 213.399 81.7735 212.921 81.3596C212.444 80.9458 212.153 80.5333 212.048 80.1221C211.938 79.7057 212.004 79.3274 212.246 78.987C212.49 78.6388 212.902 78.3639 213.484 78.1624C214.059 77.9635 214.682 77.8799 215.353 77.9115C216.026 77.9352 216.682 78.0636 217.321 78.2968C217.955 78.5248 218.51 78.8457 218.988 79.2596C219.466 79.6734 219.76 80.0885 219.87 80.5049C219.974 80.9161 219.905 81.2957 219.661 81.644C219.419 81.9843 219.011 82.254 218.436 82.4528ZM217.584 81.7142C217.939 81.5912 218.187 81.421 218.328 81.2037C218.462 80.9812 218.488 80.7377 218.405 80.4732C218.316 80.2034 218.113 79.9363 217.797 79.6717C217.491 79.3967 217.137 79.1819 216.736 79.0273C216.33 78.8675 215.917 78.7757 215.498 78.7521C215.079 78.7284 214.692 78.7781 214.337 78.9011C213.982 79.0241 213.733 79.1981 213.591 79.4233C213.45 79.6406 213.424 79.8841 213.513 80.1539C213.597 80.4184 213.796 80.6829 214.112 80.9475C214.413 81.2172 214.766 81.432 215.173 81.5919C215.574 81.7465 215.986 81.8382 216.411 81.8671C216.838 81.8882 217.228 81.8372 217.584 81.7142ZM222.192 81.0427L217.431 76.9172L218.599 76.5129L219.579 77.3616L219.483 77.5265C219.347 77.317 219.301 77.0984 219.345 76.8706C219.383 76.6375 219.499 76.4215 219.692 76.2225C219.88 76.0183 220.132 75.8613 220.45 75.7513C220.903 75.5943 221.354 75.5264 221.801 75.5474C222.243 75.5632 222.684 75.6707 223.126 75.8698C223.567 76.0689 224.009 76.3597 224.45 76.7421L227.352 79.2566L226.184 79.6609L223.345 77.2014C223.073 76.9657 222.804 76.7875 222.538 76.667C222.266 76.5413 221.996 76.4771 221.729 76.4744C221.455 76.4665 221.184 76.5161 220.917 76.6235C220.69 76.702 220.512 76.8001 220.384 76.9179C220.249 77.0305 220.161 77.1562 220.121 77.2949C220.087 77.4311 220.099 77.5738 220.154 77.7231C220.212 77.8645 220.319 78.0033 220.476 78.1395L223.36 80.6383L222.782 80.8385C222.684 80.8726 222.586 80.9066 222.487 80.9406C222.389 80.9746 222.291 81.0086 222.192 81.0427ZM231.057 78.0841C230.513 78.2725 229.919 78.3496 229.277 78.3154C228.636 78.2734 228.006 78.1358 227.388 77.9026C226.764 77.6641 226.213 77.338 225.735 76.9242C225.257 76.5103 224.955 76.1017 224.828 75.6984C224.703 75.2873 224.746 74.9168 224.958 74.5869C225.163 74.2517 225.534 73.9913 226.071 73.8055C226.366 73.7034 226.689 73.6393 227.04 73.6132C227.392 73.5793 227.744 73.582 228.096 73.6213C228.443 73.6554 228.755 73.7197 229.033 73.814C229.313 73.9005 229.531 74.0118 229.688 74.148L229.366 74.2815L226.183 71.5234L227.351 71.1191L234.062 76.9339L232.894 77.3382L231.76 76.356L231.987 76.2775C232.132 76.4032 232.217 76.5499 232.241 76.7175C232.259 76.8798 232.227 77.0487 232.144 77.2241C232.068 77.397 231.934 77.5606 231.742 77.715C231.558 77.8669 231.329 77.9899 231.057 78.0841ZM230.409 77.3298C230.764 77.2068 231.005 77.0353 231.132 76.8154C231.259 76.5955 231.274 76.3519 231.178 76.0848C231.083 75.8098 230.875 75.5335 230.554 75.2559C230.234 74.9782 229.87 74.7595 229.464 74.5997C229.058 74.432 228.647 74.3324 228.23 74.3009C227.813 74.2694 227.426 74.3151 227.071 74.4381C226.716 74.5611 226.475 74.7325 226.348 74.9525C226.221 75.1724 226.205 75.4199 226.3 75.6948C226.397 75.962 226.605 76.2343 226.926 76.512C227.246 76.7896 227.609 77.0123 228.014 77.18C228.421 77.3398 228.833 77.4355 229.25 77.467C229.667 77.4985 230.053 77.4528 230.409 77.3298ZM238.236 75.4892L231.887 69.9886L232.987 69.6079L243.038 72.4304L242.938 72.5639C242.637 72.3675 242.304 72.1343 241.94 71.8645C241.583 71.5921 241.201 71.2883 240.793 70.953C240.385 70.6177 239.96 70.2589 239.519 69.8764L237.433 68.0691L238.657 67.6452L245.006 73.1457L243.883 73.5343L234.103 70.8493L234.101 70.6961C234.613 71.076 235.032 71.389 235.359 71.6352C235.679 71.8762 235.935 72.07 236.125 72.2167C236.316 72.3634 236.462 72.4813 236.565 72.5703C236.67 72.6515 236.755 72.7209 236.821 72.7786L239.461 75.0652L238.236 75.4892ZM250.006 71.4148L246.905 68.7274C246.639 68.4969 246.303 68.3528 245.898 68.2951C245.494 68.2295 245.111 68.2595 244.748 68.3852C244.415 68.5003 244.167 68.6521 244.004 68.8406C243.848 69.0265 243.773 69.2543 243.777 69.524L242.41 69.2605C242.457 68.8704 242.609 68.5392 242.866 68.2669C243.13 67.992 243.501 67.7721 243.977 67.6073C244.431 67.4502 244.884 67.3665 245.338 67.3562C245.791 67.3458 246.227 67.4114 246.644 67.5529C247.055 67.6891 247.427 67.9013 247.76 68.1895L251.061 71.0497L250.006 71.4148ZM248.317 72.1096C247.931 72.2431 247.527 72.3098 247.103 72.3097C246.68 72.3096 246.272 72.2493 245.879 72.1287C245.487 72.0003 245.146 71.8104 244.856 71.5589C244.602 71.3389 244.435 71.1255 244.355 70.9186C244.275 70.7117 244.281 70.5153 244.373 70.3294C244.473 70.1409 244.656 69.9602 244.922 69.7875C245.196 69.6121 245.552 69.4485 245.991 69.2967L247.646 68.7236L248.288 69.4033L246.587 69.9921C246.36 70.0706 246.174 70.157 246.029 70.2512C245.885 70.3376 245.785 70.4345 245.729 70.5418C245.675 70.6413 245.666 70.7434 245.702 70.8482C245.732 70.9477 245.811 71.0525 245.938 71.1625C246.071 71.2777 246.23 71.3655 246.416 71.4258C246.596 71.4808 246.785 71.507 246.983 71.5044C247.181 71.5019 247.375 71.4679 247.564 71.4024C247.836 71.3082 248.057 71.1878 248.226 71.0412C248.397 70.8868 248.511 70.7192 248.566 70.5385C248.63 70.3552 248.633 70.1746 248.576 69.9965L249.455 70.4288C249.508 70.6671 249.496 70.8949 249.419 71.1122C249.342 71.3295 249.213 71.5246 249.031 71.6974C248.85 71.8702 248.612 72.0076 248.317 72.1096ZM252.061 70.7036L247.299 66.5782L248.479 66.17L249.495 67.05L249.388 67.2189C249.291 67.0618 249.235 66.8981 249.218 66.7279C249.209 66.5551 249.245 66.3888 249.325 66.2291C249.406 66.0615 249.524 65.911 249.676 65.7774C249.837 65.6413 250.034 65.5327 250.268 65.4516C250.608 65.3338 250.952 65.2697 251.3 65.2593C251.648 65.2489 251.996 65.2935 252.343 65.3931C252.691 65.4927 253.039 65.6473 253.386 65.8569L253.169 65.8882L253.094 65.7272C253.038 65.5779 253.021 65.426 253.044 65.2715C253.068 65.1092 253.127 64.9534 253.219 64.8041C253.311 64.6549 253.436 64.5201 253.593 64.3996C253.75 64.2792 253.931 64.1837 254.135 64.113C254.581 63.9586 255.02 63.8946 255.453 63.9209C255.893 63.9445 256.333 64.0598 256.773 64.2668C257.22 64.4712 257.664 64.7646 258.106 65.147L260.963 67.6222L259.783 68.0305L256.981 65.6024C256.576 65.2514 256.181 65.0287 255.797 64.9343C255.415 64.8321 255.019 64.8517 254.611 64.993C254.4 65.0663 254.229 65.1618 254.101 65.2796C253.974 65.3896 253.894 65.5126 253.86 65.6488C253.827 65.7849 253.842 65.9263 253.906 66.073C253.963 66.2144 254.073 66.3559 254.237 66.4973L257.084 68.9647L255.905 69.3729L253.085 66.9291C252.71 66.6043 252.32 66.3908 251.917 66.2886C251.521 66.1837 251.134 66.1968 250.756 66.3276C250.544 66.4009 250.378 66.4951 250.257 66.6103C250.13 66.7202 250.049 66.8433 250.016 66.9795C249.977 67.1104 249.989 67.2492 250.052 67.3958C250.11 67.5372 250.217 67.6761 250.374 67.8123L253.24 70.2954L252.061 70.7036ZM264.942 66.3548C264.329 66.5668 263.682 66.6661 263 66.6529C262.32 66.6318 261.662 66.5112 261.028 66.2911C260.4 66.0683 259.851 65.7527 259.379 65.3441C259.004 65.0193 258.738 64.6971 258.581 64.3776C258.424 64.0581 258.366 63.7556 258.407 63.4702C258.449 63.1769 258.595 62.9138 258.845 62.6808C259.096 62.44 259.44 62.2436 259.879 62.0919C260.264 61.9584 260.684 61.8865 261.137 61.8761C261.585 61.8605 262.032 61.8999 262.48 61.9943C262.935 62.086 263.369 62.2328 263.782 62.4345C264.196 62.6284 264.565 62.8707 264.89 63.1614L265.278 63.5111L260.413 65.195L259.409 64.641L263.525 63.2161L263.509 63.4085L263.292 63.22C263.069 63.0549 262.808 62.9292 262.507 62.8427C262.206 62.7562 261.901 62.7116 261.591 62.7089C261.281 62.7062 260.997 62.7494 260.74 62.8384C260.332 62.9797 260.052 63.1537 259.899 63.3606C259.74 63.5622 259.71 63.7926 259.808 64.0519C259.9 64.3059 260.122 64.5848 260.472 64.8887C260.805 65.1768 261.182 65.3982 261.604 65.5528C262.019 65.7021 262.453 65.7795 262.903 65.7848C263.354 65.7901 263.787 65.7208 264.203 65.5769C264.497 65.4749 264.73 65.3466 264.901 65.1921C265.08 65.0351 265.213 64.8164 265.303 64.5363L266.554 64.9058C266.518 65.0943 266.422 65.2815 266.266 65.4674C266.118 65.6507 265.93 65.8222 265.702 65.9818C265.475 66.1337 265.221 66.258 264.942 66.3548Z" fill="black"/>
</g>
<g filter="url(#filter8_f_86_1659)">
<ellipse cx="127.22" cy="68.3581" rx="127.22" ry="68.3581" transform="matrix(-0.890627 0.454734 -0.893373 -0.449317 360.609 12.9656)" fill="#B557FA"/>
</g>
<rect opacity="0.63" width="200.756" height="29.1309" rx="10" transform="matrix(-0.944986 0.32711 0.755779 0.654827 300.336 71.6863)" fill="url(#paint7_linear_86_1659)"/>
<path opacity="0.87" d="M136.066 143.679L127.189 139.054L128.493 138.603L133.996 141.515C134.189 141.609 134.399 141.727 134.626 141.868C134.853 142.01 135.07 142.147 135.277 142.281C135.486 142.407 135.65 142.507 135.769 142.583L135.431 142.689C135.224 142.372 135.063 142.128 134.948 141.955C134.841 141.779 134.761 141.646 134.708 141.554C134.649 141.457 134.601 141.375 134.565 141.307L133.128 138.329L134.228 137.948L138.477 139.952C138.698 140.052 138.907 140.155 139.105 140.263C139.305 140.362 139.5 140.467 139.69 140.577C139.875 140.682 140.072 140.793 140.282 140.911L140.051 141.068C139.925 140.914 139.825 140.794 139.749 140.711C139.675 140.619 139.616 140.544 139.57 140.487C139.525 140.429 139.483 140.374 139.443 140.322C139.398 140.264 139.345 140.191 139.285 140.102C139.232 140.01 139.157 139.886 139.06 139.729L136.623 135.788L137.939 135.333L141.758 141.709L140.908 142.003L134.838 139.288L134.976 139.284L136.894 143.393L136.066 143.679ZM148.162 139.492L145.06 136.805C144.794 136.574 144.459 136.43 144.054 136.372C143.65 136.307 143.267 136.337 142.904 136.463C142.571 136.578 142.323 136.73 142.16 136.918C142.004 137.104 141.928 137.332 141.933 137.601L140.565 137.338C140.612 136.948 140.764 136.617 141.022 136.344C141.286 136.069 141.657 135.85 142.133 135.685C142.587 135.528 143.04 135.444 143.494 135.434C143.947 135.423 144.383 135.489 144.8 135.63C145.211 135.767 145.583 135.979 145.915 136.267L149.217 139.127L148.162 139.492ZM146.472 140.187C146.087 140.321 145.682 140.387 145.259 140.387C144.836 140.387 144.428 140.327 144.035 140.206C143.643 140.078 143.302 139.888 143.012 139.636C142.758 139.416 142.591 139.203 142.511 138.996C142.431 138.789 142.437 138.593 142.529 138.407C142.629 138.218 142.812 138.038 143.078 137.865C143.352 137.689 143.708 137.526 144.146 137.374L145.802 136.801L146.444 137.481L144.743 138.069C144.516 138.148 144.33 138.234 144.185 138.329C144.041 138.415 143.941 138.512 143.885 138.619C143.831 138.719 143.822 138.821 143.858 138.926C143.888 139.025 143.967 139.13 144.094 139.24C144.227 139.355 144.386 139.443 144.572 139.503C144.752 139.558 144.941 139.584 145.139 139.582C145.337 139.579 145.531 139.545 145.72 139.48C145.992 139.386 146.213 139.265 146.382 139.119C146.553 138.964 146.666 138.797 146.722 138.616C146.786 138.433 146.789 138.252 146.731 138.074L147.611 138.506C147.664 138.744 147.652 138.972 147.575 139.19C147.498 139.407 147.368 139.602 147.187 139.775C147.005 139.948 146.767 140.085 146.472 140.187ZM150.262 138.765L143.551 132.95L144.719 132.546L151.43 138.361L150.262 138.765ZM152.654 137.937L145.943 132.122L147.111 131.718L153.822 137.533L152.654 137.937ZM157.782 136.272C157.17 136.484 156.523 136.583 155.841 136.57C155.161 136.549 154.503 136.428 153.868 136.208C153.241 135.986 152.691 135.67 152.22 135.261C151.845 134.937 151.579 134.614 151.422 134.295C151.265 133.975 151.206 133.673 151.247 133.387C151.29 133.094 151.436 132.831 151.685 132.598C151.936 132.357 152.281 132.161 152.719 132.009C153.105 131.876 153.525 131.804 153.978 131.793C154.426 131.778 154.873 131.817 155.321 131.911C155.776 132.003 156.21 132.15 156.622 132.352C157.036 132.546 157.406 132.788 157.731 133.079L158.119 133.428L153.254 135.112L152.249 134.558L156.366 133.133L156.35 133.326L156.132 133.137C155.91 132.972 155.648 132.846 155.348 132.76C155.047 132.673 154.741 132.629 154.431 132.626C154.122 132.623 153.838 132.667 153.581 132.756C153.173 132.897 152.892 133.071 152.74 133.278C152.581 133.479 152.55 133.71 152.649 133.969C152.741 134.223 152.962 134.502 153.313 134.806C153.645 135.094 154.023 135.315 154.444 135.47C154.86 135.619 155.293 135.697 155.744 135.702C156.194 135.707 156.627 135.638 157.043 135.494C157.338 135.392 157.571 135.264 157.742 135.109C157.92 134.952 158.054 134.734 158.143 134.454L159.395 134.823C159.359 135.012 159.263 135.199 159.107 135.385C158.959 135.568 158.771 135.739 158.542 135.899C158.315 136.051 158.062 136.175 157.782 136.272ZM161.841 134.757L155.865 129.579L157.033 129.174L163.009 134.353L161.841 134.757ZM156.751 131.845L155.844 131.06L159.631 129.748L160.538 130.534L156.751 131.845ZM167.194 132.904L163.919 126.34L165.166 125.908L174.565 130.353L173.261 130.804L167.62 128.116C167.555 128.087 167.407 128.014 167.175 127.896C166.951 127.775 166.698 127.643 166.416 127.499C166.133 127.355 165.876 127.224 165.645 127.106C165.407 126.983 165.253 126.904 165.182 126.87L165.434 126.772C165.491 126.877 165.565 127.009 165.654 127.169C165.75 127.326 165.849 127.494 165.948 127.672C166.056 127.847 166.154 128.015 166.243 128.175C166.326 128.329 166.396 128.459 166.454 128.564L168.442 132.472L167.194 132.904ZM166.977 131.066L166.488 130.091L170.094 128.843L171.558 129.48L166.977 131.066ZM177.567 129.424C177.022 129.612 176.429 129.689 175.786 129.655C175.145 129.613 174.516 129.475 173.897 129.242C173.273 129.004 172.722 128.678 172.244 128.264C171.767 127.85 171.464 127.441 171.338 127.038C171.212 126.627 171.255 126.256 171.467 125.926C171.673 125.591 172.044 125.331 172.581 125.145C172.876 125.043 173.198 124.979 173.549 124.953C173.901 124.919 174.254 124.922 174.606 124.961C174.952 124.995 175.264 125.059 175.542 125.154C175.822 125.24 176.041 125.351 176.198 125.488L175.876 125.621L172.692 122.863L173.86 122.459L180.572 128.273L179.404 128.678L178.27 127.696L178.497 127.617C178.642 127.743 178.727 127.889 178.751 128.057C178.769 128.219 178.736 128.388 178.653 128.564C178.577 128.737 178.444 128.9 178.252 129.055C178.067 129.206 177.839 129.329 177.567 129.424ZM176.918 128.669C177.274 128.546 177.515 128.375 177.642 128.155C177.769 127.935 177.784 127.692 177.687 127.424C177.592 127.149 177.384 126.873 177.064 126.595C176.743 126.318 176.38 126.099 175.973 125.939C175.568 125.772 175.157 125.672 174.74 125.64C174.322 125.609 173.936 125.655 173.581 125.778C173.225 125.901 172.984 126.072 172.857 126.292C172.73 126.512 172.714 126.759 172.809 127.034C172.906 127.302 173.115 127.574 173.435 127.852C173.756 128.129 174.118 128.352 174.523 128.52C174.93 128.679 175.342 128.775 175.759 128.807C176.177 128.838 176.563 128.792 176.918 128.669ZM184.3 127.093C183.756 127.281 183.162 127.358 182.52 127.324C181.879 127.282 181.249 127.145 180.631 126.911C180.006 126.673 179.455 126.347 178.978 125.933C178.5 125.519 178.198 125.11 178.071 124.707C177.946 124.296 177.989 123.926 178.201 123.596C178.406 123.26 178.777 123 179.314 122.814C179.609 122.712 179.932 122.648 180.283 122.622C180.635 122.588 180.987 122.591 181.339 122.63C181.686 122.664 181.998 122.728 182.276 122.823C182.556 122.909 182.774 123.021 182.931 123.157L182.609 123.29L179.426 120.532L180.594 120.128L187.305 125.943L186.137 126.347L185.003 125.365L185.23 125.286C185.375 125.412 185.46 125.559 185.484 125.726C185.502 125.889 185.47 126.057 185.387 126.233C185.311 126.406 185.177 126.569 184.985 126.724C184.801 126.876 184.572 126.999 184.3 127.093ZM183.652 126.339C184.007 126.216 184.248 126.044 184.375 125.824C184.502 125.604 184.517 125.361 184.421 125.094C184.326 124.819 184.118 124.542 183.797 124.265C183.477 123.987 183.113 123.768 182.707 123.608C182.301 123.441 181.89 123.341 181.473 123.31C181.056 123.278 180.669 123.324 180.314 123.447C179.959 123.57 179.718 123.741 179.591 123.961C179.464 124.181 179.448 124.429 179.543 124.704C179.64 124.971 179.848 125.243 180.169 125.521C180.489 125.798 180.852 126.021 181.257 126.189C181.664 126.349 182.076 126.444 182.493 126.476C182.91 126.507 183.296 126.462 183.652 126.339ZM188.459 125.543L183.698 121.418L184.877 121.009L186.374 122.306L185.898 122.031C185.751 121.803 185.682 121.574 185.691 121.344C185.708 121.11 185.791 120.902 185.939 120.719C186.095 120.533 186.312 120.392 186.592 120.295C186.72 120.251 186.851 120.216 186.982 120.193C187.121 120.167 187.237 120.152 187.329 120.15L188.039 121.136C187.918 121.141 187.791 121.155 187.66 121.179C187.53 121.195 187.412 121.221 187.306 121.257C187.102 121.328 186.939 121.425 186.816 121.548C186.695 121.663 186.62 121.795 186.592 121.945C186.564 122.086 186.585 122.237 186.653 122.396C186.715 122.551 186.833 122.704 187.009 122.856L189.639 125.135L188.459 125.543ZM195.194 123.322C194.581 123.534 193.934 123.633 193.252 123.62C192.572 123.599 191.914 123.478 191.279 123.258C190.652 123.036 190.103 122.72 189.631 122.311C189.256 121.986 188.99 121.664 188.833 121.345C188.676 121.025 188.618 120.723 188.659 120.437C188.701 120.144 188.847 119.881 189.096 119.648C189.347 119.407 189.692 119.211 190.131 119.059C190.516 118.926 190.936 118.854 191.389 118.843C191.837 118.828 192.284 118.867 192.732 118.961C193.187 119.053 193.621 119.2 194.033 119.402C194.448 119.596 194.817 119.838 195.142 120.129L195.53 120.478L190.665 122.162L189.661 121.608L193.777 120.183L193.761 120.376L193.543 120.187C193.321 120.022 193.06 119.896 192.759 119.81C192.458 119.723 192.153 119.679 191.843 119.676C191.533 119.673 191.249 119.717 190.992 119.806C190.584 119.947 190.304 120.121 190.151 120.328C189.992 120.529 189.962 120.76 190.06 121.019C190.152 121.273 190.374 121.552 190.724 121.856C191.057 122.144 191.434 122.365 191.856 122.52C192.271 122.669 192.705 122.747 193.155 122.752C193.606 122.757 194.039 122.688 194.455 122.544C194.749 122.442 194.982 122.314 195.153 122.159C195.332 122.002 195.465 121.784 195.555 121.503L196.806 121.873C196.77 122.062 196.674 122.249 196.518 122.435C196.37 122.618 196.182 122.789 195.953 122.949C195.727 123.101 195.473 123.225 195.194 123.322ZM200.591 121.454C200.092 121.627 199.572 121.722 199.033 121.74C198.493 121.758 197.955 121.695 197.418 121.551L197.668 120.805C198.106 120.91 198.506 120.958 198.867 120.951C199.23 120.935 199.582 120.868 199.922 120.751C200.058 120.703 200.171 120.65 200.26 120.59C200.351 120.522 200.41 120.45 200.439 120.374C200.475 120.295 200.48 120.216 200.453 120.138C200.419 120.054 200.357 119.973 200.267 119.894C200.11 119.758 199.911 119.673 199.67 119.639C199.552 119.628 199.386 119.631 199.172 119.647C198.958 119.654 198.696 119.679 198.385 119.721C197.855 119.794 197.394 119.83 196.999 119.827C196.604 119.824 196.259 119.786 195.963 119.713C195.734 119.652 195.527 119.574 195.341 119.477C195.149 119.375 194.972 119.253 194.808 119.111C194.542 118.881 194.401 118.644 194.384 118.4C194.368 118.157 194.461 117.93 194.664 117.721C194.868 117.504 195.17 117.326 195.571 117.187C195.851 117.09 196.157 117.021 196.489 116.979C196.83 116.935 197.174 116.922 197.523 116.94C197.873 116.958 198.205 117.008 198.521 117.089L198.442 117.832C198.183 117.782 197.925 117.75 197.666 117.737C197.409 117.716 197.169 117.715 196.947 117.733C196.725 117.752 196.542 117.786 196.398 117.835C196.24 117.89 196.108 117.95 196.004 118.016C195.899 118.081 195.826 118.151 195.784 118.224C195.749 118.295 195.745 118.369 195.772 118.448C195.8 118.526 195.859 118.605 195.949 118.684C196.035 118.749 196.134 118.807 196.244 118.856C196.356 118.898 196.474 118.927 196.598 118.943C196.729 118.956 196.905 118.957 197.126 118.947C197.347 118.937 197.61 118.908 197.915 118.861C198.372 118.798 198.77 118.767 199.108 118.767C199.448 118.759 199.751 118.783 200.015 118.838C200.281 118.885 200.52 118.963 200.732 119.074C200.944 119.184 201.143 119.32 201.33 119.482C201.603 119.718 201.749 119.964 201.77 120.221C201.793 120.469 201.702 120.703 201.498 120.92C201.294 121.137 200.991 121.315 200.591 121.454ZM205.563 119.732C205.064 119.905 204.545 120.001 204.005 120.019C203.466 120.037 202.927 119.974 202.391 119.83L202.64 119.084C203.079 119.189 203.479 119.237 203.84 119.229C204.203 119.214 204.554 119.147 204.895 119.029C205.031 118.982 205.143 118.928 205.233 118.868C205.323 118.8 205.383 118.728 205.412 118.652C205.448 118.574 205.453 118.495 205.425 118.417C205.392 118.333 205.33 118.252 205.239 118.173C205.082 118.037 204.883 117.952 204.643 117.918C204.525 117.907 204.359 117.91 204.144 117.925C203.931 117.933 203.669 117.958 203.357 118C202.828 118.073 202.366 118.108 201.972 118.106C201.577 118.103 201.232 118.065 200.935 117.991C200.707 117.931 200.5 117.852 200.314 117.756C200.122 117.653 199.944 117.532 199.781 117.39C199.515 117.16 199.374 116.923 199.357 116.679C199.341 116.436 199.434 116.209 199.636 116C199.84 115.782 200.143 115.604 200.544 115.466C200.823 115.369 201.129 115.299 201.462 115.258C201.802 115.213 202.147 115.2 202.496 115.219C202.845 115.237 203.178 115.287 203.494 115.368L203.414 116.11C203.156 116.061 202.897 116.029 202.639 116.016C202.382 115.995 202.142 115.994 201.92 116.012C201.698 116.03 201.515 116.064 201.371 116.114C201.212 116.169 201.081 116.229 200.976 116.295C200.872 116.36 200.799 116.429 200.756 116.503C200.722 116.573 200.718 116.648 200.745 116.727C200.772 116.805 200.831 116.884 200.922 116.962C201.008 117.028 201.106 117.085 201.217 117.135C201.329 117.177 201.446 117.206 201.57 117.222C201.702 117.235 201.878 117.236 202.099 117.226C202.32 117.215 202.583 117.187 202.888 117.139C203.345 117.077 203.742 117.045 204.081 117.045C204.421 117.038 204.723 117.061 204.988 117.116C205.254 117.164 205.493 117.242 205.705 117.352C205.916 117.462 206.116 117.598 206.303 117.761C206.575 117.997 206.722 118.243 206.743 118.499C206.766 118.748 206.675 118.981 206.471 119.198C206.267 119.416 205.964 119.594 205.563 119.732Z" fill="url(#paint8_linear_86_1659)"/>
<g opacity="0.5" filter="url(#filter9_f_86_1659)">
<path d="M139.382 149.728L130.505 145.103L131.809 144.652L137.312 147.563C137.506 147.658 137.716 147.776 137.943 147.917C138.169 148.059 138.386 148.196 138.593 148.33C138.802 148.455 138.966 148.556 139.085 148.632L138.747 148.738C138.54 148.421 138.379 148.176 138.265 148.004C138.157 147.828 138.077 147.695 138.024 147.603C137.965 147.506 137.918 147.423 137.882 147.355L136.444 144.378L137.544 143.997L141.794 146.001C142.014 146.101 142.224 146.204 142.422 146.312C142.621 146.411 142.816 146.516 143.007 146.626C143.191 146.731 143.389 146.842 143.599 146.96L143.367 147.117C143.242 146.962 143.141 146.843 143.066 146.76C142.992 146.668 142.932 146.593 142.887 146.536C142.841 146.478 142.799 146.423 142.76 146.371C142.714 146.313 142.662 146.24 142.601 146.151C142.548 146.059 142.473 145.935 142.377 145.777L139.94 141.837L141.255 141.382L145.075 147.758L144.224 148.052L138.154 145.336L138.292 145.333L140.21 149.442L139.382 149.728ZM151.478 145.541L148.377 142.854C148.111 142.623 147.775 142.479 147.37 142.421C146.966 142.356 146.583 142.386 146.22 142.511C145.888 142.627 145.64 142.778 145.476 142.967C145.32 143.153 145.245 143.381 145.249 143.65L143.882 143.387C143.929 142.997 144.081 142.665 144.338 142.393C144.603 142.118 144.973 141.898 145.449 141.733C145.903 141.576 146.356 141.493 146.81 141.482C147.264 141.472 147.699 141.538 148.116 141.679C148.527 141.815 148.899 142.028 149.232 142.316L152.533 145.176L151.478 145.541ZM149.789 146.236C149.403 146.369 148.999 146.436 148.576 146.436C148.152 146.436 147.744 146.375 147.351 146.255C146.959 146.127 146.619 145.937 146.328 145.685C146.074 145.465 145.907 145.252 145.827 145.045C145.747 144.838 145.753 144.642 145.846 144.456C145.945 144.267 146.128 144.086 146.394 143.914C146.668 143.738 147.024 143.575 147.463 143.423L149.118 142.85L149.76 143.53L148.059 144.118C147.832 144.197 147.646 144.283 147.501 144.377C147.357 144.464 147.258 144.561 147.202 144.668C147.147 144.768 147.138 144.87 147.174 144.974C147.205 145.074 147.283 145.179 147.41 145.289C147.543 145.404 147.703 145.492 147.889 145.552C148.068 145.607 148.257 145.633 148.456 145.631C148.654 145.628 148.847 145.594 149.036 145.529C149.308 145.434 149.529 145.314 149.698 145.167C149.869 145.013 149.983 144.845 150.039 144.665C150.102 144.481 150.105 144.301 150.048 144.123L150.928 144.555C150.981 144.793 150.968 145.021 150.891 145.238C150.814 145.456 150.685 145.651 150.503 145.824C150.322 145.996 150.084 146.134 149.789 146.236ZM153.578 144.814L146.867 138.999L148.035 138.595L154.746 144.41L153.578 144.814ZM155.971 143.986L149.26 138.171L150.428 137.767L157.139 143.582L155.971 143.986ZM161.099 142.321C160.486 142.533 159.839 142.632 159.158 142.619C158.477 142.598 157.82 142.477 157.185 142.257C156.557 142.034 156.008 141.719 155.536 141.31C155.161 140.985 154.895 140.663 154.738 140.344C154.581 140.024 154.523 139.722 154.564 139.436C154.606 139.143 154.752 138.88 155.002 138.647C155.253 138.406 155.597 138.21 156.036 138.058C156.421 137.924 156.841 137.853 157.294 137.842C157.742 137.827 158.19 137.866 158.637 137.96C159.092 138.052 159.526 138.199 159.939 138.401C160.353 138.594 160.722 138.837 161.047 139.127L161.435 139.477L156.57 141.161L155.566 140.607L159.682 139.182L159.666 139.375L159.449 139.186C159.226 139.021 158.965 138.895 158.664 138.809C158.363 138.722 158.058 138.678 157.748 138.675C157.438 138.672 157.154 138.715 156.897 138.804C156.489 138.946 156.209 139.12 156.056 139.327C155.897 139.528 155.867 139.759 155.965 140.018C156.057 140.272 156.279 140.551 156.629 140.855C156.962 141.143 157.339 141.364 157.761 141.519C158.177 141.668 158.61 141.746 159.06 141.751C159.511 141.756 159.944 141.687 160.36 141.543C160.655 141.441 160.887 141.313 161.058 141.158C161.237 141.001 161.371 140.783 161.46 140.502L162.712 140.872C162.675 141.06 162.579 141.248 162.423 141.433C162.275 141.617 162.087 141.788 161.859 141.948C161.632 142.1 161.379 142.224 161.099 142.321ZM165.158 140.806L159.181 135.628L160.349 135.223L166.326 140.402L165.158 140.806ZM160.067 137.894L159.16 137.108L162.948 135.797L163.855 136.583L160.067 137.894ZM170.511 138.953L167.235 132.389L168.483 131.957L177.882 136.401L176.578 136.853L170.936 134.165C170.871 134.136 170.723 134.063 170.492 133.945C170.268 133.824 170.015 133.692 169.732 133.548C169.449 133.404 169.192 133.273 168.961 133.155C168.724 133.032 168.57 132.953 168.498 132.919L168.75 132.821C168.808 132.926 168.881 133.058 168.97 133.218C169.067 133.375 169.165 133.543 169.265 133.721C169.372 133.896 169.47 134.064 169.56 134.223C169.643 134.378 169.713 134.508 169.77 134.612L171.758 138.521L170.511 138.953ZM170.294 137.115L169.804 136.14L173.41 134.892L174.875 135.529L170.294 137.115ZM180.883 135.473C180.339 135.661 179.745 135.738 179.103 135.704C178.462 135.662 177.832 135.524 177.214 135.291C176.589 135.053 176.038 134.726 175.561 134.313C175.083 133.899 174.781 133.49 174.654 133.087C174.529 132.676 174.572 132.305 174.783 131.975C174.989 131.64 175.36 131.38 175.897 131.194C176.192 131.092 176.515 131.028 176.866 131.002C177.218 130.968 177.57 130.97 177.922 131.01C178.269 131.044 178.581 131.108 178.859 131.202C179.139 131.289 179.357 131.4 179.514 131.536L179.192 131.67L176.009 128.912L177.177 128.507L183.888 134.322L182.72 134.727L181.586 133.744L181.813 133.666C181.958 133.792 182.043 133.938 182.067 134.106C182.085 134.268 182.053 134.437 181.969 134.613C181.894 134.785 181.76 134.949 181.568 135.103C181.383 135.255 181.155 135.378 180.883 135.473ZM180.235 134.718C180.59 134.595 180.831 134.424 180.958 134.204C181.085 133.984 181.1 133.74 181.004 133.473C180.908 133.198 180.701 132.922 180.38 132.644C180.06 132.367 179.696 132.148 179.29 131.988C178.884 131.82 178.473 131.721 178.056 131.689C177.639 131.658 177.252 131.703 176.897 131.826C176.542 131.949 176.301 132.121 176.174 132.341C176.046 132.561 176.031 132.808 176.126 133.083C176.222 133.35 176.431 133.623 176.751 133.9C177.072 134.178 177.435 134.401 177.84 134.568C178.246 134.728 178.658 134.824 179.076 134.855C179.493 134.887 179.879 134.841 180.235 134.718ZM187.616 133.142C187.072 133.33 186.479 133.407 185.836 133.373C185.195 133.331 184.566 133.193 183.947 132.96C183.323 132.722 182.772 132.396 182.294 131.982C181.817 131.568 181.514 131.159 181.387 130.756C181.262 130.345 181.305 129.974 181.517 129.644C181.723 129.309 182.094 129.049 182.631 128.863C182.925 128.761 183.248 128.697 183.599 128.671C183.951 128.637 184.304 128.64 184.656 128.679C185.002 128.713 185.314 128.777 185.592 128.872C185.872 128.958 186.09 129.069 186.248 129.206L185.926 129.339L182.742 126.581L183.91 126.177L190.622 131.992L189.454 132.396L188.32 131.414L188.547 131.335C188.692 131.461 188.776 131.607 188.801 131.775C188.819 131.937 188.786 132.106 188.703 132.282C188.627 132.455 188.493 132.618 188.301 132.773C188.117 132.924 187.889 133.047 187.616 133.142ZM186.968 132.387C187.323 132.264 187.565 132.093 187.692 131.873C187.819 131.653 187.834 131.41 187.737 131.142C187.642 130.867 187.434 130.591 187.114 130.313C186.793 130.036 186.43 129.817 186.023 129.657C185.618 129.49 185.207 129.39 184.789 129.358C184.372 129.327 183.986 129.373 183.631 129.496C183.275 129.619 183.034 129.79 182.907 130.01C182.78 130.23 182.764 130.477 182.859 130.752C182.956 131.02 183.164 131.292 183.485 131.57C183.805 131.847 184.168 132.07 184.573 132.238C184.98 132.397 185.392 132.493 185.809 132.525C186.226 132.556 186.613 132.51 186.968 132.387ZM191.776 131.592L187.014 127.467L188.194 127.058L189.69 128.355L189.214 128.08C189.067 127.852 188.999 127.623 189.008 127.392C189.025 127.159 189.107 126.951 189.255 126.768C189.411 126.582 189.629 126.441 189.908 126.344C190.037 126.299 190.167 126.265 190.298 126.242C190.438 126.216 190.553 126.201 190.645 126.199L191.355 127.185C191.234 127.19 191.108 127.204 190.976 127.228C190.846 127.244 190.728 127.27 190.623 127.306C190.418 127.377 190.255 127.474 190.133 127.597C190.012 127.712 189.937 127.844 189.908 127.994C189.881 128.135 189.901 128.286 189.969 128.445C190.031 128.6 190.15 128.753 190.325 128.905L192.955 131.184L191.776 131.592ZM198.51 129.371C197.898 129.583 197.251 129.682 196.569 129.669C195.888 129.648 195.231 129.527 194.596 129.307C193.969 129.084 193.419 128.769 192.947 128.36C192.573 128.035 192.307 127.713 192.149 127.394C191.992 127.074 191.934 126.772 191.975 126.486C192.017 126.193 192.163 125.93 192.413 125.697C192.664 125.456 193.009 125.26 193.447 125.108C193.833 124.974 194.252 124.903 194.706 124.892C195.153 124.877 195.601 124.916 196.048 125.01C196.503 125.102 196.937 125.249 197.35 125.451C197.764 125.644 198.134 125.887 198.459 126.177L198.846 126.527L193.982 128.211L192.977 127.657L197.093 126.232L197.078 126.425L196.86 126.236C196.638 126.071 196.376 125.945 196.075 125.859C195.774 125.772 195.469 125.728 195.159 125.725C194.849 125.722 194.566 125.765 194.309 125.854C193.9 125.996 193.62 126.17 193.467 126.377C193.308 126.578 193.278 126.809 193.376 127.068C193.468 127.322 193.69 127.601 194.041 127.905C194.373 128.193 194.75 128.414 195.172 128.569C195.588 128.718 196.021 128.795 196.471 128.801C196.922 128.806 197.355 128.737 197.771 128.593C198.066 128.491 198.299 128.363 198.47 128.208C198.648 128.051 198.782 127.832 198.871 127.552L200.123 127.922C200.086 128.11 199.99 128.298 199.835 128.483C199.686 128.667 199.498 128.838 199.27 128.998C199.043 129.15 198.79 129.274 198.51 129.371ZM203.907 127.503C203.408 127.675 202.889 127.771 202.349 127.789C201.809 127.807 201.271 127.744 200.734 127.6L200.984 126.854C201.423 126.959 201.822 127.007 202.184 126.999C202.547 126.984 202.898 126.917 203.238 126.799C203.374 126.752 203.487 126.699 203.576 126.638C203.667 126.57 203.727 126.498 203.755 126.422C203.792 126.344 203.796 126.265 203.769 126.187C203.736 126.103 203.674 126.022 203.583 125.943C203.426 125.807 203.227 125.722 202.987 125.688C202.869 125.677 202.703 125.68 202.488 125.695C202.275 125.703 202.012 125.728 201.701 125.77C201.172 125.843 200.71 125.878 200.315 125.876C199.921 125.873 199.575 125.835 199.279 125.762C199.051 125.701 198.844 125.623 198.658 125.526C198.466 125.424 198.288 125.302 198.125 125.16C197.859 124.93 197.717 124.693 197.701 124.449C197.684 124.206 197.777 123.979 197.98 123.77C198.184 123.552 198.487 123.374 198.887 123.236C199.167 123.139 199.473 123.07 199.806 123.028C200.146 122.983 200.491 122.97 200.84 122.989C201.189 123.007 201.522 123.057 201.838 123.138L201.758 123.881C201.5 123.831 201.241 123.799 200.983 123.786C200.726 123.765 200.486 123.764 200.264 123.782C200.041 123.8 199.858 123.834 199.715 123.884C199.556 123.939 199.425 123.999 199.32 124.065C199.216 124.13 199.143 124.199 199.1 124.273C199.065 124.343 199.062 124.418 199.089 124.497C199.116 124.575 199.175 124.654 199.266 124.732C199.352 124.798 199.45 124.856 199.56 124.905C199.672 124.947 199.79 124.976 199.914 124.992C200.046 125.005 200.222 125.006 200.443 124.996C200.663 124.985 200.926 124.957 201.232 124.91C201.688 124.847 202.086 124.816 202.425 124.816C202.765 124.808 203.067 124.831 203.332 124.887C203.598 124.934 203.837 125.012 204.048 125.122C204.26 125.232 204.459 125.369 204.647 125.531C204.919 125.767 205.066 126.013 205.087 126.27C205.109 126.518 205.019 126.751 204.814 126.969C204.61 127.186 204.308 127.364 203.907 127.503ZM208.88 125.781C208.381 125.954 207.862 126.049 207.322 126.068C206.782 126.086 206.244 126.023 205.707 125.879L205.957 125.133C206.395 125.237 206.795 125.286 207.156 125.278C207.519 125.263 207.871 125.196 208.211 125.078C208.347 125.031 208.46 124.977 208.549 124.917C208.64 124.849 208.699 124.777 208.728 124.701C208.764 124.623 208.769 124.544 208.742 124.465C208.709 124.382 208.647 124.3 208.556 124.222C208.399 124.086 208.2 124.001 207.96 123.966C207.842 123.956 207.675 123.958 207.461 123.974C207.247 123.982 206.985 124.007 206.674 124.049C206.145 124.122 205.683 124.157 205.288 124.154C204.893 124.152 204.548 124.114 204.252 124.04C204.023 123.98 203.816 123.901 203.63 123.804C203.438 123.702 203.261 123.58 203.098 123.439C202.831 123.208 202.69 122.971 202.674 122.728C202.657 122.484 202.75 122.258 202.953 122.048C203.157 121.831 203.459 121.653 203.86 121.514C204.14 121.418 204.446 121.348 204.778 121.306C205.119 121.262 205.463 121.249 205.813 121.267C206.162 121.286 206.494 121.336 206.81 121.417L206.731 122.159C206.472 122.109 206.214 122.078 205.955 122.065C205.698 122.044 205.459 122.042 205.236 122.061C205.014 122.079 204.831 122.113 204.688 122.163C204.529 122.218 204.397 122.278 204.293 122.343C204.189 122.409 204.115 122.478 204.073 122.551C204.038 122.622 204.034 122.697 204.061 122.775C204.089 122.854 204.148 122.932 204.238 123.011C204.324 123.077 204.423 123.134 204.533 123.184C204.645 123.226 204.763 123.255 204.887 123.27C205.018 123.284 205.194 123.285 205.415 123.275C205.636 123.264 205.899 123.235 206.204 123.188C206.661 123.126 207.059 123.094 207.397 123.094C207.737 123.087 208.04 123.11 208.304 123.165C208.57 123.212 208.809 123.291 209.021 123.401C209.233 123.511 209.432 123.647 209.62 123.81C209.892 124.045 210.038 124.292 210.059 124.548C210.082 124.797 209.991 125.03 209.787 125.247C209.583 125.465 209.281 125.643 208.88 125.781Z" fill="black"/>
</g>
<g filter="url(#filter10_f_86_1659)">
<ellipse cx="167.785" cy="40.9272" rx="167.785" ry="40.9272" transform="matrix(-0.594161 0.804346 -0.999916 0.0129163 572.449 69.9011)" fill="#B557FA"/>
</g>
<g filter="url(#filter11_f_86_1659)">
<ellipse cx="168.355" cy="90.4609" rx="168.355" ry="90.4609" transform="matrix(-0.998318 -0.0579754 -0.543595 -0.839347 384.148 254.844)" fill="black"/>
</g>
<defs>
<filter id="filter0_i_86_1659" x="62.7327" y="56.5924" width="149.833" height="65.2574" filterUnits="userSpaceOnUse" color-interpolation-filters="sRGB">
<feFlood flood-opacity="0" result="BackgroundImageFix"/>
<feBlend mode="normal" in="SourceGraphic" in2="BackgroundImageFix" result="shape"/>
<feColorMatrix in="SourceAlpha" type="matrix" values="0 0 0 0 0 0 0 0 0 0 0 0 0 0 0 0 0 0 127 0" result="hardAlpha"/>
<feOffset dy="5"/>
<feGaussianBlur stdDeviation="3.95"/>
<feComposite in2="hardAlpha" operator="arithmetic" k2="-1" k3="1"/>
<feColorMatrix type="matrix" values="0 0 0 0 0 0 0 0 0 0 0 0 0 0 0 0 0 0 0.45 0"/>
<feBlend mode="normal" in2="shape" result="effect1_innerShadow_86_1659"/>
</filter>
<filter id="filter1_f_86_1659" x="74.6811" y="83.5063" width="67.8928" height="31.6327" filterUnits="userSpaceOnUse" color-interpolation-filters="sRGB">
<feFlood flood-opacity="0" result="BackgroundImageFix"/>
<feBlend mode="normal" in="SourceGraphic" in2="BackgroundImageFix" result="shape"/>
<feGaussianBlur stdDeviation="1.7" result="effect1_foregroundBlur_86_1659"/>
</filter>
<filter id="filter2_di_86_1659" x="144.324" y="18.2033" width="215.519" height="125.878" filterUnits="userSpaceOnUse" color-interpolation-filters="sRGB">
<feFlood flood-opacity="0" result="BackgroundImageFix"/>
<feColorMatrix in="SourceAlpha" type="matrix" values="0 0 0 0 0 0 0 0 0 0 0 0 0 0 0 0 0 0 127 0" result="hardAlpha"/>
<feOffset dy="16"/>
<feGaussianBlur stdDeviation="16.3"/>
<feComposite in2="hardAlpha" operator="out"/>
<feColorMatrix type="matrix" values="0 0 0 0 0.708013 0 0 0 0 0.342708 0 0 0 0 0.979167 0 0 0 0.44 0"/>
<feBlend mode="normal" in2="BackgroundImageFix" result="effect1_dropShadow_86_1659"/>
<feBlend mode="normal" in="SourceGraphic" in2="effect1_dropShadow_86_1659" result="shape"/>
<feColorMatrix in="SourceAlpha" type="matrix" values="0 0 0 0 0 0 0 0 0 0 0 0 0 0 0 0 0 0 127 0" result="hardAlpha"/>
<feOffset dx="5" dy="1"/>
<feGaussianBlur stdDeviation="3.95"/>
<feComposite in2="hardAlpha" operator="arithmetic" k2="-1" k3="1"/>
<feColorMatrix type="matrix" values="0 0 0 0 0 0 0 0 0 0 0 0 0 0 0 0 0 0 0.54 0"/>
<feBlend mode="normal" in2="shape" result="effect2_innerShadow_86_1659"/>
</filter>
<filter id="filter3_i_86_1659" x="243.084" y="91.61" width="155.319" height="61.6779" filterUnits="userSpaceOnUse" color-interpolation-filters="sRGB">
<feFlood flood-opacity="0" result="BackgroundImageFix"/>
<feBlend mode="normal" in="SourceGraphic" in2="BackgroundImageFix" result="shape"/>
<feColorMatrix in="SourceAlpha" type="matrix" values="0 0 0 0 0 0 0 0 0 0 0 0 0 0 0 0 0 0 127 0" result="hardAlpha"/>
<feOffset dx="5" dy="1"/>
<feGaussianBlur stdDeviation="3.95"/>
<feComposite in2="hardAlpha" operator="arithmetic" k2="-1" k3="1"/>
<feColorMatrix type="matrix" values="0 0 0 0 0 0 0 0 0 0 0 0 0 0 0 0 0 0 0.54 0"/>
<feBlend mode="normal" in2="shape" result="effect1_innerShadow_86_1659"/>
</filter>
<filter id="filter4_i_86_1659" x="109.67" y="3.09045" width="155.319" height="61.6779" filterUnits="userSpaceOnUse" color-interpolation-filters="sRGB">
<feFlood flood-opacity="0" result="BackgroundImageFix"/>
<feBlend mode="normal" in="SourceGraphic" in2="BackgroundImageFix" result="shape"/>
<feColorMatrix in="SourceAlpha" type="matrix" values="0 0 0 0 0 0 0 0 0 0 0 0 0 0 0 0 0 0 127 0" result="hardAlpha"/>
<feOffset dx="5" dy="1"/>
<feGaussianBlur stdDeviation="3.95"/>
<feComposite in2="hardAlpha" operator="arithmetic" k2="-1" k3="1"/>
<feColorMatrix type="matrix" values="0 0 0 0 0 0 0 0 0 0 0 0 0 0 0 0 0 0 0.54 0"/>
<feBlend mode="normal" in2="shape" result="effect1_innerShadow_86_1659"/>
</filter>
<filter id="filter5_i_86_1659" x="-53.0368" y="62.4967" width="155.319" height="61.6779" filterUnits="userSpaceOnUse" color-interpolation-filters="sRGB">
<feFlood flood-opacity="0" result="BackgroundImageFix"/>
<feBlend mode="normal" in="SourceGraphic" in2="BackgroundImageFix" result="shape"/>
<feColorMatrix in="SourceAlpha" type="matrix" values="0 0 0 0 0 0 0 0 0 0 0 0 0 0 0 0 0 0 127 0" result="hardAlpha"/>
<feOffset dx="5" dy="1"/>
<feGaussianBlur stdDeviation="3.95"/>
<feComposite in2="hardAlpha" operator="arithmetic" k2="-1" k3="1"/>
<feColorMatrix type="matrix" values="0 0 0 0 0 0 0 0 0 0 0 0 0 0 0 0 0 0 0.54 0"/>
<feBlend mode="normal" in2="shape" result="effect1_innerShadow_86_1659"/>
</filter>
<filter id="filter6_i_86_1659" x="141.352" y="162.917" width="159.244" height="63.6763" filterUnits="userSpaceOnUse" color-interpolation-filters="sRGB">
<feFlood flood-opacity="0" result="BackgroundImageFix"/>
<feBlend mode="normal" in="SourceGraphic" in2="BackgroundImageFix" result="shape"/>
<feColorMatrix in="SourceAlpha" type="matrix" values="0 0 0 0 0 0 0 0 0 0 0 0 0 0 0 0 0 0 127 0" result="hardAlpha"/>
<feOffset dx="5" dy="1"/>
<feGaussianBlur stdDeviation="3.95"/>
<feComposite in2="hardAlpha" operator="arithmetic" k2="-1" k3="1"/>
<feColorMatrix type="matrix" values="0 0 0 0 0 0 0 0 0 0 0 0 0 0 0 0 0 0 0.54 0"/>
<feBlend mode="normal" in2="shape" result="effect1_innerShadow_86_1659"/>
</filter>
<filter id="filter7_f_86_1659" x="187.68" y="56.9586" width="82.4699" height="35.4861" filterUnits="userSpaceOnUse" color-interpolation-filters="sRGB">
<feFlood flood-opacity="0" result="BackgroundImageFix"/>
<feBlend mode="normal" in="SourceGraphic" in2="BackgroundImageFix" result="shape"/>
<feGaussianBlur stdDeviation="1.3" result="effect1_foregroundBlur_86_1659"/>
</filter>
<filter id="filter8_f_86_1659" x="-117.705" y="-200.61" width="607.88" height="481.424" filterUnits="userSpaceOnUse" color-interpolation-filters="sRGB">
<feFlood flood-opacity="0" result="BackgroundImageFix"/>
<feBlend mode="normal" in="SourceGraphic" in2="BackgroundImageFix" result="shape"/>
<feGaussianBlur stdDeviation="87.6" result="effect1_foregroundBlur_86_1659"/>
</filter>
<filter id="filter9_f_86_1659" x="123.042" y="112.042" width="95.0923" height="45.74" filterUnits="userSpaceOnUse" color-interpolation-filters="sRGB">
<feFlood flood-opacity="0" result="BackgroundImageFix"/>
<feBlend mode="normal" in="SourceGraphic" in2="BackgroundImageFix" result="shape"/>
<feGaussianBlur stdDeviation="3.55" result="effect1_foregroundBlur_86_1659"/>
</filter>
<filter id="filter10_f_86_1659" x="224.042" y="-29.5713" width="415.585" height="469.916" filterUnits="userSpaceOnUse" color-interpolation-filters="sRGB">
<feFlood flood-opacity="0" result="BackgroundImageFix"/>
<feBlend mode="normal" in="SourceGraphic" in2="BackgroundImageFix" result="shape"/>
<feGaussianBlur stdDeviation="50" result="effect1_foregroundBlur_86_1659"/>
</filter>
<filter id="filter11_f_86_1659" x="-128.261" y="-27.4054" width="590.327" height="393.123" filterUnits="userSpaceOnUse" color-interpolation-filters="sRGB">
<feFlood flood-opacity="0" result="BackgroundImageFix"/>
<feBlend mode="normal" in="SourceGraphic" in2="BackgroundImageFix" result="shape"/>
<feGaussianBlur stdDeviation="60" result="effect1_foregroundBlur_86_1659"/>
</filter>
<linearGradient id="paint0_linear_86_1659" x1="0" y1="12.7043" x2="148.62" y2="12.7043" gradientUnits="userSpaceOnUse">
<stop stop-color="#6C12AF" stop-opacity="0"/>
<stop offset="1" stop-color="#B557FA"/>
</linearGradient>
<linearGradient id="paint1_linear_86_1659" x1="87.6238" y1="113.013" x2="114.807" y2="72.2837" gradientUnits="userSpaceOnUse">
<stop stop-color="white"/>
<stop offset="1" stop-color="#B557FA"/>
</linearGradient>
<linearGradient id="paint2_linear_86_1659" x1="0" y1="13.0254" x2="148.62" y2="13.0254" gradientUnits="userSpaceOnUse">
<stop stop-color="#6C12AF" stop-opacity="0"/>
<stop offset="1" stop-color="#B557FA"/>
</linearGradient>
<linearGradient id="paint3_linear_86_1659" x1="0" y1="13.0254" x2="148.62" y2="13.0254" gradientUnits="userSpaceOnUse">
<stop stop-color="#6C12AF" stop-opacity="0"/>
<stop offset="1" stop-color="#B557FA"/>
</linearGradient>
<linearGradient id="paint4_linear_86_1659" x1="0" y1="13.0254" x2="148.62" y2="13.0254" gradientUnits="userSpaceOnUse">
<stop stop-color="#6C12AF" stop-opacity="0"/>
<stop offset="1" stop-color="#B557FA"/>
</linearGradient>
<linearGradient id="paint5_linear_86_1659" x1="0" y1="13.0254" x2="148.62" y2="13.0254" gradientUnits="userSpaceOnUse">
<stop stop-color="#6C12AF" stop-opacity="0"/>
<stop offset="1" stop-color="#B557FA"/>
</linearGradient>
<linearGradient id="paint6_linear_86_1659" x1="0" y1="13.0254" x2="148.62" y2="13.0254" gradientUnits="userSpaceOnUse">
<stop stop-color="#6C12AF" stop-opacity="0"/>
<stop offset="1" stop-color="#B557FA"/>
</linearGradient>
<linearGradient id="paint7_linear_86_1659" x1="0" y1="14.5655" x2="200.756" y2="14.5655" gradientUnits="userSpaceOnUse">
<stop stop-color="#6C12AF" stop-opacity="0"/>
<stop offset="1" stop-color="#B557FA"/>
</linearGradient>
<linearGradient id="paint8_linear_86_1659" x1="138.651" y1="150.467" x2="172.218" y2="95.5716" gradientUnits="userSpaceOnUse">
<stop stop-color="white"/>
<stop offset="1" stop-color="#B557FA"/>
</linearGradient>
</defs>
</svg>
