<svg width="182" height="87" viewBox="0 0 182 87" fill="none" xmlns="http://www.w3.org/2000/svg">
<g filter="url(#filter0_di_86_1659)">
<rect x="16.4219" y="18.0828" width="148.947" height="53.332" rx="26.666" fill="black"/>
<rect x="16.9219" y="18.5828" width="147.947" height="52.332" rx="26.166" stroke="url(#paint0_linear_86_1659)"/>
</g>
<g filter="url(#filter1_dii_86_1659)">
<rect x="19.6875" y="21.1179" width="142.746" height="46.8329" rx="23.4164" fill="url(#paint1_linear_86_1659)"/>
<rect x="20.1875" y="21.6179" width="141.746" height="45.8329" rx="22.9164" stroke="url(#paint2_linear_86_1659)"/>
</g>
<g filter="url(#filter2_i_86_1659)">
<path d="M61.4145 50.4468C60.2012 50.4468 59.0745 50.2802 58.0345 49.9468C57.0079 49.6135 56.0745 49.0802 55.2345 48.3468L57.1345 46.2668C57.8545 46.8402 58.5812 47.2535 59.3145 47.5068C60.0612 47.7468 60.7679 47.8668 61.4345 47.8668C62.2079 47.8668 62.7945 47.7202 63.1945 47.4268C63.5945 47.1335 63.7945 46.7535 63.7945 46.2868C63.7812 45.9668 63.6545 45.7002 63.4145 45.4868C63.1879 45.2735 62.8945 45.0935 62.5345 44.9468C62.1745 44.7868 61.7612 44.6468 61.2945 44.5268C60.8279 44.4068 60.3545 44.2802 59.8745 44.1468C59.3945 44.0002 58.9212 43.8335 58.4545 43.6468C58.0012 43.4602 57.5945 43.2202 57.2345 42.9268C56.8745 42.6202 56.5812 42.2602 56.3545 41.8468C56.1279 41.4202 56.0145 40.9002 56.0145 40.2868V40.2068C56.0279 39.6068 56.1612 39.0535 56.4145 38.5468C56.6812 38.0402 57.0412 37.6068 57.4945 37.2468C57.9612 36.8735 58.5079 36.5802 59.1345 36.3668C59.7745 36.1535 60.4812 36.0468 61.2545 36.0468H61.5545C62.6479 36.0468 63.6212 36.2202 64.4745 36.5668C65.3412 36.9002 66.0879 37.3335 66.7145 37.8668L64.8545 39.9268C63.9212 39.0868 62.7479 38.6468 61.3345 38.6068C60.7079 38.6068 60.1745 38.7335 59.7345 38.9868C59.3079 39.2268 59.0879 39.5802 59.0745 40.0468C59.0879 40.3402 59.2079 40.5868 59.4345 40.7868C59.6612 40.9868 59.9545 41.1602 60.3145 41.3068C60.6879 41.4402 61.1079 41.5668 61.5745 41.6868C62.0545 41.8068 62.5345 41.9402 63.0145 42.0868C63.5079 42.2335 63.9879 42.4068 64.4545 42.6068C64.9212 42.8068 65.3345 43.0602 65.6945 43.3668C66.0679 43.6735 66.3612 44.0468 66.5745 44.4868C66.8012 44.9268 66.9145 45.4602 66.9145 46.0868V46.3468C66.9145 47.0135 66.7612 47.6068 66.4545 48.1268C66.1612 48.6335 65.7545 49.0602 65.2345 49.4068C64.7279 49.7535 64.1412 50.0135 63.4745 50.1868C62.8212 50.3602 62.1345 50.4468 61.4145 50.4468ZM67.888 38.0868V35.4668H70.988V38.0868H67.888ZM67.988 50.2468V39.4268H70.908V50.2468H67.988ZM81.3055 39.4268H83.9455V49.3868C83.9455 50.2002 83.7988 50.8935 83.5055 51.4668C83.2121 52.0535 82.8121 52.5268 82.3055 52.8868C81.7988 53.2602 81.2121 53.5335 80.5455 53.7068C79.8788 53.8802 79.1721 53.9668 78.4255 53.9668C77.3588 53.9668 76.4388 53.8602 75.6655 53.6468C74.8921 53.4468 74.2388 53.2402 73.7055 53.0268L74.4055 50.9268C74.8321 51.0735 75.3255 51.2268 75.8855 51.3868C76.4588 51.5468 77.1055 51.6268 77.8255 51.6268H77.9055C78.3721 51.6268 78.8121 51.5735 79.2255 51.4668C79.6388 51.3735 79.9988 51.2268 80.3055 51.0268C80.6121 50.8268 80.8521 50.5802 81.0255 50.2868C81.1988 49.9935 81.2855 49.6602 81.2855 49.2868L81.2055 48.5868C80.8188 49.0268 80.3321 49.3868 79.7455 49.6668C79.1721 49.9335 78.5121 50.0668 77.7655 50.0668C76.9521 50.0668 76.2055 49.9402 75.5255 49.6868C74.8455 49.4335 74.2588 49.0735 73.7655 48.6068C73.2721 48.1402 72.8855 47.5802 72.6055 46.9268C72.3388 46.2735 72.2055 45.5535 72.2055 44.7668V44.6068C72.2055 43.8468 72.3388 43.1402 72.6055 42.4868C72.8855 41.8202 73.2655 41.2468 73.7455 40.7668C74.2388 40.2868 74.8188 39.9135 75.4855 39.6468C76.1521 39.3668 76.8721 39.2268 77.6455 39.2268C78.4321 39.2268 79.1188 39.3602 79.7055 39.6268C80.2921 39.8802 80.7721 40.2202 81.1455 40.6468L81.3055 39.4268ZM78.0855 47.7668C78.5255 47.7668 78.9255 47.6935 79.2855 47.5468C79.6588 47.3868 79.9721 47.1735 80.2255 46.9068C80.4921 46.6402 80.6921 46.3268 80.8255 45.9668C80.9721 45.5935 81.0455 45.2002 81.0455 44.7868V44.6268C81.0455 44.2135 80.9788 43.8202 80.8455 43.4468C80.7255 43.0735 80.5388 42.7468 80.2855 42.4668C80.0321 42.1735 79.7188 41.9468 79.3455 41.7868C78.9721 41.6135 78.5455 41.5268 78.0655 41.5268C77.6255 41.5268 77.2188 41.6068 76.8455 41.7668C76.4855 41.9268 76.1721 42.1468 75.9055 42.4268C75.6521 42.6935 75.4521 43.0135 75.3055 43.3868C75.1588 43.7602 75.0855 44.1668 75.0855 44.6068V44.7268C75.0855 45.1268 75.1521 45.5135 75.2855 45.8868C75.4321 46.2468 75.6321 46.5668 75.8855 46.8468C76.1521 47.1268 76.4721 47.3535 76.8455 47.5268C77.2188 47.6868 77.6321 47.7668 78.0855 47.7668ZM91.9252 39.2268C93.0985 39.2268 94.0318 39.5868 94.7252 40.3068C95.4185 41.0135 95.7652 41.9935 95.7652 43.2468V50.2468H92.8652V43.9668C92.8652 43.1668 92.6718 42.5802 92.2852 42.2068C91.9118 41.8335 91.4118 41.6468 90.7852 41.6468C90.1185 41.6468 89.5918 41.8602 89.2052 42.2868C88.8185 42.7135 88.6252 43.2935 88.6252 44.0268V50.2468H85.7052V39.4268H88.3652L88.4652 40.6268C88.8252 40.2268 89.2852 39.8935 89.8452 39.6268C90.4052 39.3602 91.0585 39.2268 91.8052 39.2268H91.9252ZM108.451 39.4268H111.371V50.2468H108.731L108.611 49.0268C108.251 49.4268 107.791 49.7668 107.231 50.0468C106.684 50.3135 106.031 50.4468 105.271 50.4468H105.151C103.977 50.4468 103.044 50.0935 102.351 49.3868C101.657 48.6668 101.311 47.6802 101.311 46.4268V39.4268H104.231V45.7068C104.231 46.5068 104.417 47.0935 104.791 47.4668C105.164 47.8268 105.664 48.0068 106.291 48.0068C106.957 48.0068 107.484 47.7935 107.871 47.3668C108.257 46.9402 108.451 46.3668 108.451 45.6468V39.4268ZM119.718 39.2268C120.545 39.2268 121.285 39.3802 121.938 39.6868C122.605 39.9802 123.172 40.3802 123.638 40.8868C124.118 41.3935 124.485 41.9868 124.738 42.6668C124.992 43.3335 125.118 44.0402 125.118 44.7868V44.9668C125.118 45.7802 124.978 46.5268 124.698 47.2068C124.432 47.8735 124.065 48.4468 123.598 48.9268C123.132 49.4068 122.578 49.7802 121.938 50.0468C121.298 50.3135 120.618 50.4468 119.898 50.4468C119.085 50.4468 118.372 50.3202 117.758 50.0668C117.145 49.8002 116.638 49.4535 116.238 49.0268V53.9668H113.318V39.4268H115.978L116.118 40.7068C116.492 40.2668 116.978 39.9135 117.578 39.6468C118.192 39.3668 118.905 39.2268 119.718 39.2268ZM122.198 44.7868C122.198 44.3335 122.125 43.9202 121.978 43.5468C121.832 43.1602 121.625 42.8268 121.358 42.5468C121.105 42.2668 120.792 42.0468 120.418 41.8868C120.058 41.7268 119.652 41.6468 119.198 41.6468C118.718 41.6468 118.292 41.7335 117.918 41.9068C117.558 42.0802 117.252 42.3135 116.998 42.6068C116.745 42.8868 116.552 43.2202 116.418 43.6068C116.298 43.9802 116.238 44.3802 116.238 44.8068V44.9868C116.238 45.4135 116.305 45.8135 116.438 46.1868C116.585 46.5602 116.785 46.8868 117.038 47.1668C117.305 47.4335 117.618 47.6468 117.978 47.8068C118.338 47.9668 118.738 48.0468 119.178 48.0468C119.645 48.0468 120.065 47.9602 120.438 47.7868C120.812 47.6135 121.125 47.3802 121.378 47.0868C121.645 46.7935 121.845 46.4602 121.978 46.0868C122.125 45.7002 122.198 45.3068 122.198 44.9068V44.7868Z" fill="url(#paint3_linear_86_1659)"/>
</g>
<defs>
<filter id="filter0_di_86_1659" x="0.0218754" y="0.682764" width="181.747" height="86.132" filterUnits="userSpaceOnUse" color-interpolation-filters="sRGB">
<feFlood flood-opacity="0" result="BackgroundImageFix"/>
<feColorMatrix in="SourceAlpha" type="matrix" values="0 0 0 0 0 0 0 0 0 0 0 0 0 0 0 0 0 0 127 0" result="hardAlpha"/>
<feMorphology radius="1" operator="dilate" in="SourceAlpha" result="effect1_dropShadow_86_1659"/>
<feOffset dy="-1"/>
<feGaussianBlur stdDeviation="7.7"/>
<feComposite in2="hardAlpha" operator="out"/>
<feColorMatrix type="matrix" values="0 0 0 0 0 0 0 0 0 0 0 0 0 0 0 0 0 0 1 0"/>
<feBlend mode="normal" in2="BackgroundImageFix" result="effect1_dropShadow_86_1659"/>
<feBlend mode="normal" in="SourceGraphic" in2="effect1_dropShadow_86_1659" result="shape"/>
<feColorMatrix in="SourceAlpha" type="matrix" values="0 0 0 0 0 0 0 0 0 0 0 0 0 0 0 0 0 0 127 0" result="hardAlpha"/>
<feOffset dy="4"/>
<feGaussianBlur stdDeviation="2"/>
<feComposite in2="hardAlpha" operator="arithmetic" k2="-1" k3="1"/>
<feColorMatrix type="matrix" values="0 0 0 0 0 0 0 0 0 0 0 0 0 0 0 0 0 0 0.37 0"/>
<feBlend mode="normal" in2="shape" result="effect2_innerShadow_86_1659"/>
</filter>
<filter id="filter1_dii_86_1659" x="5.7875" y="6.21792" width="174.846" height="74.6329" filterUnits="userSpaceOnUse" color-interpolation-filters="sRGB">
<feFlood flood-opacity="0" result="BackgroundImageFix"/>
<feColorMatrix in="SourceAlpha" type="matrix" values="0 0 0 0 0 0 0 0 0 0 0 0 0 0 0 0 0 0 127 0" result="hardAlpha"/>
<feOffset dy="-1"/>
<feGaussianBlur stdDeviation="6.95"/>
<feComposite in2="hardAlpha" operator="out"/>
<feColorMatrix type="matrix" values="0 0 0 0 0.498039 0 0 0 0 0 0 0 0 0 0.870588 0 0 0 0.67 0"/>
<feBlend mode="normal" in2="BackgroundImageFix" result="effect1_dropShadow_86_1659"/>
<feBlend mode="normal" in="SourceGraphic" in2="effect1_dropShadow_86_1659" result="shape"/>
<feColorMatrix in="SourceAlpha" type="matrix" values="0 0 0 0 0 0 0 0 0 0 0 0 0 0 0 0 0 0 127 0" result="hardAlpha"/>
<feOffset dy="4"/>
<feGaussianBlur stdDeviation="2"/>
<feComposite in2="hardAlpha" operator="arithmetic" k2="-1" k3="1"/>
<feColorMatrix type="matrix" values="0 0 0 0 0 0 0 0 0 0 0 0 0 0 0 0 0 0 0.37 0"/>
<feBlend mode="normal" in2="shape" result="effect2_innerShadow_86_1659"/>
<feColorMatrix in="SourceAlpha" type="matrix" values="0 0 0 0 0 0 0 0 0 0 0 0 0 0 0 0 0 0 127 0" result="hardAlpha"/>
<feOffset dx="31" dy="4"/>
<feGaussianBlur stdDeviation="9.1"/>
<feComposite in2="hardAlpha" operator="arithmetic" k2="-1" k3="1"/>
<feColorMatrix type="matrix" values="0 0 0 0 0 0 0 0 0 0 0 0 0 0 0 0 0 0 0.3 0"/>
<feBlend mode="normal" in2="effect2_innerShadow_86_1659" result="effect3_innerShadow_86_1659"/>
</filter>
<filter id="filter2_i_86_1659" x="54.2346" y="35.4668" width="70.8839" height="18.5" filterUnits="userSpaceOnUse" color-interpolation-filters="sRGB">
<feFlood flood-opacity="0" result="BackgroundImageFix"/>
<feBlend mode="normal" in="SourceGraphic" in2="BackgroundImageFix" result="shape"/>
<feColorMatrix in="SourceAlpha" type="matrix" values="0 0 0 0 0 0 0 0 0 0 0 0 0 0 0 0 0 0 127 0" result="hardAlpha"/>
<feOffset dx="-1"/>
<feGaussianBlur stdDeviation="0.5"/>
<feComposite in2="hardAlpha" operator="arithmetic" k2="-1" k3="1"/>
<feColorMatrix type="matrix" values="0 0 0 0 0.42389 0 0 0 0 0.06875 0 0 0 0 0.6875 0 0 0 0.37 0"/>
<feBlend mode="normal" in2="shape" result="effect1_innerShadow_86_1659"/>
</filter>
<linearGradient id="paint0_linear_86_1659" x1="158.517" y1="14.081" x2="28.9777" y2="66.7595" gradientUnits="userSpaceOnUse">
<stop stop-color="#B557FA"/>
<stop offset="0.0730253" stop-color="#AF55F2" stop-opacity="0.24"/>
<stop offset="0.195384" stop-color="#A952EA" stop-opacity="0.73"/>
<stop offset="0.488553" stop-color="#9146C8" stop-opacity="0"/>
<stop offset="0.730929" stop-color="#9205FB" stop-opacity="0.78125"/>
<stop offset="0.875582" stop-color="#9212F1" stop-opacity="0.16"/>
<stop offset="1" stop-color="#9200FF"/>
</linearGradient>
<linearGradient id="paint1_linear_86_1659" x1="91.0607" y1="21.1179" x2="91.0607" y2="67.9508" gradientUnits="userSpaceOnUse">
<stop stop-color="#48007D"/>
<stop offset="1" stop-color="#8300E3"/>
</linearGradient>
<linearGradient id="paint2_linear_86_1659" x1="19.6875" y1="44.5344" x2="162.434" y2="44.5344" gradientUnits="userSpaceOnUse">
<stop stop-color="#B557FA"/>
<stop offset="0.525828" stop-color="#8E45C4" stop-opacity="0"/>
<stop offset="1" stop-color="#6B3494"/>
</linearGradient>
<linearGradient id="paint3_linear_86_1659" x1="100.72" y1="49.604" x2="73.477" y2="73.833" gradientUnits="userSpaceOnUse">
<stop stop-color="white"/>
<stop offset="1" stop-color="white" stop-opacity="0"/>
</linearGradient>
</defs>
</svg>
