<svg width="91" height="92" viewBox="0 0 91 92" fill="none" xmlns="http://www.w3.org/2000/svg">
<g filter="url(#filter0_i_86_1659)">
<circle cx="45.1591" cy="46.0407" r="45.0576" fill="url(#paint0_linear_86_1659)"/>
</g>
<circle cx="45.1591" cy="46.0407" r="44.0576" stroke="url(#paint1_linear_86_1659)" stroke-width="2"/>
<g filter="url(#filter1_i_86_1659)">
<path d="M68.8536 46.0057L68.5262 41.6746C67.937 36.0816 65.3961 30.8749 61.3497 26.9691C57.1868 23.0586 51.7008 20.8642 45.9894 20.825C45.3216 20.825 44.6811 21.0902 44.2089 21.5625C43.7367 22.0347 43.4714 22.6752 43.4714 23.343C43.4714 24.0109 43.7367 24.6513 44.2089 25.1236C44.6811 25.5958 45.3216 25.8611 45.9894 25.8611C50.4115 25.8618 54.6717 27.5245 57.9251 30.5195C61.0953 33.5806 63.0762 37.6674 63.5152 42.0523L63.8174 46.0057C63.9238 50.223 63.6117 54.4404 62.8857 58.5961C62.7759 59.2501 62.9284 59.921 63.3103 60.4632C63.6922 61.0054 64.2726 61.375 64.9254 61.4919C65.0669 61.5179 65.2119 61.5179 65.3534 61.4919C65.9497 61.5016 66.53 61.2994 66.9912 60.9213C67.4523 60.5432 67.7642 60.0137 67.8715 59.427C68.6381 54.9963 68.9671 50.5009 68.8536 46.0057ZM28.4888 44.7718C28.2266 41.2787 29.0112 37.7866 30.7424 34.7413C32.4736 31.696 35.0729 29.2356 38.2086 27.6741C38.515 27.5334 38.79 27.3325 39.0174 27.0834C39.2447 26.8344 39.4197 26.5422 39.532 26.2242C39.6442 25.9062 39.6915 25.5689 39.6709 25.2324C39.6504 24.8958 39.5624 24.5668 39.4123 24.2648C39.2621 23.9629 39.0529 23.6941 38.7969 23.4746C38.541 23.2551 38.2436 23.0892 37.9223 22.9867C37.601 22.8843 37.2624 22.8475 36.9266 22.8784C36.5908 22.9093 36.2647 23.0074 35.9675 23.1668C31.9185 25.1607 28.557 28.3182 26.3139 32.2347C24.0708 36.1512 23.0482 40.6482 23.3771 45.1496V46.2575C23.7337 50.8105 23.3165 55.3911 22.1433 59.8048C22.06 60.1255 22.0409 60.4596 22.087 60.7878C22.1331 61.1159 22.2436 61.4318 22.412 61.7172C22.5804 62.0026 22.8035 62.2519 23.0685 62.4509C23.3335 62.6499 23.6352 62.7947 23.9563 62.8768C24.1654 62.9014 24.3767 62.9014 24.5858 62.8768C25.1576 62.8949 25.7186 62.7177 26.1763 62.3745C26.634 62.0312 26.9611 61.5423 27.1039 60.9883C28.4073 56.065 28.8755 50.958 28.4888 45.8798V44.7718Z" fill="url(#paint2_linear_86_1659)"/>
<path d="M58.0005 41.9033C57.5809 38.9089 56.1398 36.1514 53.9212 34.0972C52.0198 32.4411 49.6649 31.394 47.1616 31.0916C44.6582 30.7892 42.1217 31.2455 39.8807 32.4013C37.6396 33.5571 35.7973 35.3592 34.5922 37.5741C33.3871 39.7891 32.8749 42.3148 33.1219 44.8242V45.6048C33.8483 52.2573 32.9229 58.9862 30.4275 65.1955C30.3412 65.5066 30.3156 65.8315 30.352 66.1523C30.3585 66.7422 30.5718 67.311 30.9548 67.7596C31.3378 68.2082 31.8661 68.5081 32.4476 68.607C33.0292 68.706 33.6269 68.5976 34.1367 68.3008C34.6465 68.0041 35.0359 67.5378 35.2371 66.9833C38.0126 60.0184 39.033 52.4778 38.2084 45.0257V44.2451C38.0869 43.2104 38.1808 42.1617 38.4842 41.165C38.7875 40.1683 39.2937 39.2451 39.971 38.4535C41.3236 37.0106 43.1806 36.1451 45.1554 36.0372C47.1302 35.9293 49.0705 36.5874 50.5721 37.8744C51.9309 39.1366 52.819 40.8241 53.0902 42.6587L53.4427 45.63C53.6099 47.4295 53.6603 49.2379 53.5938 51.0439C53.5938 51.7117 53.8591 52.3522 54.3314 52.8244C54.8036 53.2967 55.4441 53.562 56.1119 53.562C56.7699 53.5313 57.3927 53.2562 57.8584 52.7904C58.3242 52.3247 58.5993 51.7019 58.63 51.0439C58.676 49.0255 58.5834 47.0063 58.353 45.0005L58.0005 41.9033ZM55.5076 56.5585C55.1783 56.5124 54.8433 56.532 54.5217 56.6161C54.2 56.7002 53.8983 56.8472 53.6337 57.0485C53.3692 57.2498 53.1472 57.5015 52.9804 57.7891C52.8136 58.0767 52.7055 58.3944 52.6621 58.724C52.469 60.9323 51.9951 63.107 51.252 65.1955L50.698 66.5552C50.4366 67.1666 50.4275 67.8565 50.6728 68.4745C50.9181 69.0925 51.3979 69.5883 52.0074 69.8539C52.3119 69.9743 52.6369 70.0342 52.9643 70.0302C53.4614 70.0277 53.9467 69.8781 54.359 69.6003C54.7712 69.3225 55.092 68.9288 55.2809 68.469L55.8601 67.084C56.7527 64.5965 57.3363 62.0086 57.5976 59.3787C57.6848 58.7291 57.5152 58.071 57.125 57.5444C56.7347 57.0178 56.1545 56.6641 55.5076 56.5585Z" fill="url(#paint3_linear_86_1659)"/>
<path d="M44.8046 40.9707C44.4782 41.0339 44.1676 41.1611 43.8907 41.345C43.6137 41.5289 43.3759 41.7657 43.191 42.042C43.0061 42.3182 42.8776 42.6283 42.8132 42.9544C42.7487 43.2806 42.7494 43.6162 42.8153 43.942C44.3832 51.6719 43.6477 59.6919 40.7001 67.0076L40.4483 67.6875C40.1992 68.3053 40.2051 68.9968 40.4646 69.6103C40.7242 70.2239 41.2163 70.7095 41.8333 70.961C42.1299 71.0782 42.446 71.138 42.765 71.1372C43.2693 71.1377 43.7621 70.9868 44.1797 70.7039C44.5972 70.4211 44.9202 70.0194 45.1068 69.5509L45.3838 68.8962C48.6879 60.6584 49.5107 51.6342 47.7508 42.9348C47.6171 42.2855 47.2327 41.7152 46.6812 41.3475C46.1296 40.9798 45.4553 40.8444 44.8046 40.9707Z" fill="url(#paint4_linear_86_1659)"/>
</g>
<defs>
<filter id="filter0_i_86_1659" x="0.101562" y="0.983154" width="90.1151" height="96.7151" filterUnits="userSpaceOnUse" color-interpolation-filters="sRGB">
<feFlood flood-opacity="0" result="BackgroundImageFix"/>
<feBlend mode="normal" in="SourceGraphic" in2="BackgroundImageFix" result="shape"/>
<feColorMatrix in="SourceAlpha" type="matrix" values="0 0 0 0 0 0 0 0 0 0 0 0 0 0 0 0 0 0 127 0" result="hardAlpha"/>
<feOffset dy="10"/>
<feGaussianBlur stdDeviation="3.3"/>
<feComposite in2="hardAlpha" operator="arithmetic" k2="-1" k3="1"/>
<feColorMatrix type="matrix" values="0 0 0 0 0.290752 0 0 0 0 0.0144618 0 0 0 0 0.495833 0 0 0 0.81 0"/>
<feBlend mode="normal" in2="shape" result="effect1_innerShadow_86_1659"/>
</filter>
<filter id="filter1_i_86_1659" x="22.0625" y="20.825" width="46.8129" height="54.3123" filterUnits="userSpaceOnUse" color-interpolation-filters="sRGB">
<feFlood flood-opacity="0" result="BackgroundImageFix"/>
<feBlend mode="normal" in="SourceGraphic" in2="BackgroundImageFix" result="shape"/>
<feColorMatrix in="SourceAlpha" type="matrix" values="0 0 0 0 0 0 0 0 0 0 0 0 0 0 0 0 0 0 127 0" result="hardAlpha"/>
<feOffset dy="4"/>
<feGaussianBlur stdDeviation="2"/>
<feComposite in2="hardAlpha" operator="arithmetic" k2="-1" k3="1"/>
<feColorMatrix type="matrix" values="0 0 0 0 0 0 0 0 0 0 0 0 0 0 0 0 0 0 0.32 0"/>
<feBlend mode="normal" in2="shape" result="effect1_innerShadow_86_1659"/>
</filter>
<linearGradient id="paint0_linear_86_1659" x1="47.4876" y1="-14.2899" x2="47.4876" y2="87.7018" gradientUnits="userSpaceOnUse">
<stop/>
<stop offset="1" stop-color="#48007D"/>
</linearGradient>
<linearGradient id="paint1_linear_86_1659" x1="45.1591" y1="0.983154" x2="45.1591" y2="91.0983" gradientUnits="userSpaceOnUse">
<stop stop-color="#B557FA" stop-opacity="0"/>
<stop offset="0.455844" stop-color="#B557FA"/>
<stop offset="1" stop-color="#B557FA" stop-opacity="0"/>
</linearGradient>
<linearGradient id="paint2_linear_86_1659" x1="45.469" y1="20.825" x2="45.1032" y2="83.7629" gradientUnits="userSpaceOnUse">
<stop stop-color="#B557FA"/>
<stop offset="0.989647" stop-color="#430A6D"/>
<stop offset="1" stop-color="#B557FA"/>
</linearGradient>
<linearGradient id="paint3_linear_86_1659" x1="44.4887" y1="31.0007" x2="43.9681" y2="89.3871" gradientUnits="userSpaceOnUse">
<stop stop-color="#B557FA"/>
<stop offset="0.989647" stop-color="#430A6D"/>
<stop offset="1" stop-color="#B557FA"/>
</linearGradient>
<linearGradient id="paint4_linear_86_1659" x1="44.4599" y1="40.9246" x2="43.4078" y2="86.1003" gradientUnits="userSpaceOnUse">
<stop stop-color="#B557FA"/>
<stop offset="0.989647" stop-color="#430A6D"/>
<stop offset="1" stop-color="#B557FA"/>
</linearGradient>
</defs>
</svg>
